<svg xmlns="http://www.w3.org/2000/svg" xml:space="preserve" viewBox="19.89 20.95 360.11 78.76"><switch><g fill-rule="evenodd" clip-rule="evenodd"><path fill="#0041AB" d="M84.215 46.636s-3.387 10.48-5.568 13.232c0 0-3.184 6.68-6.869 11.745 0 0-4.006 6.076-10.135 11.621 0 0-8.669 8.49-17.784 8.322 0 0-6.709.246-10.085-6.828 0 0-2.438-4.476-2.515-10.942 0 0-.578-7.776.848-13.132 0 0 .915-5.623 3.974-11.697 0 0 5.461-11.438 12.202-10.59 0 0 4.649-.147 5.042 8.246 0 0 .271 4.809-1.854 9.721 0 0-1.189 3.444-4.937 8.032 0 0-3.082 4.396-10.112 8.62l-2.206 1.381s-.119 2.042.54 3.686c0 0 5.979-3.345 11.185-7.516 0 0 7.448-5.834 11.102-10.74 0 0 3.676-4.33 5.617-10.49 0 0 1.666-4.914-.953-9.843 0 0-1.72-2.689-4.17-3.952 0 0-4.567-3.018-11.771-1.084 0 0-4.17 1.032-8.843 4.487 0 0-5.333 3.829-9.182 10.089 0 0-2.679 3.798-5.455 11.314 0 0-1.925 4.995-2.355 11.838 0 0-.382 4.753 1.274 10.544 0 0 1.416 5.502 5.438 9.482 0 0 2.286 2.456 6.929 4.145 0 0 2.525 1.339 8.725.673 0 0 5.859-.997 8.117-2.113 0 0 6.57-2.206 12.71-7.846 0 0 6.27-5.603 10.467-12.573 0 0 3.541-5.954 5.084-9.621 0 0 2.551-5.852 4.152-10.63 0 0 2.007-6.602 2.664-9.33l1.168-5.733c.002-.001-2.106 6.866-2.444 7.482z"/><circle cx="88.189" cy="29.407" r="8.456" fill="#D40101"/><path fill="#575757" d="M101.615 84.712h-1.534v11.589h7.241v-1.368h-5.708V84.712zm14.474 8.071v-1.897c0-.633-.023-1.07-.071-1.313-.084-.39-.232-.713-.443-.968-.211-.256-.54-.468-.988-.637-.448-.169-1.03-.253-1.747-.253-.722 0-1.357.099-1.905.296-.548.198-.967.48-1.257.847-.29.366-.498.847-.625 1.442l1.391.189c.153-.596.389-1.011.708-1.245s.813-.352 1.482-.352c.716 0 1.257.161 1.62.482.269.237.403.646.403 1.226 0 .053-.002.176-.008.371-.543.189-1.389.354-2.538.49-.564.068-.985.14-1.265.213-.379.105-.721.262-1.024.467s-.548.479-.735.818c-.188.34-.281.715-.281 1.126 0 .701.248 1.277.743 1.728.495.45 1.204.676 2.126.676.559 0 1.082-.092 1.569-.276s.995-.501 1.522-.949a3 3 0 0 0 .285 1.036h1.486a3.147 3.147 0 0 1-.359-1.008c-.059-.35-.089-1.187-.089-2.509zm-1.439-.174c0 .627-.077 1.102-.229 1.423-.2.416-.514.744-.94.983-.427.24-.915.36-1.462.36-.553 0-.974-.127-1.261-.38a1.209 1.209 0 0 1-.431-.948 1.213 1.213 0 0 1 .759-1.139c.243-.105.656-.2 1.241-.284 1.033-.147 1.808-.327 2.324-.538v.523zM120.788 88c-.276.19-.578.583-.905 1.178v-1.272h-1.281v8.396h1.423v-4.396c0-.601.079-1.154.237-1.66.105-.332.282-.591.53-.778a1.35 1.35 0 0 1 .838-.28c.348 0 .695.103 1.043.308l.49-1.32c-.495-.306-.983-.458-1.462-.458a1.569 1.569 0 0 0-.913.282zm9.087.917c-.643-.801-1.46-1.201-2.451-1.201-.743 0-1.39.185-1.941.554-.551.368-.971.892-1.261 1.568a5.58 5.58 0 0 0-.435 2.218c0 1.165.316 2.163.948 2.996.633.833 1.526 1.249 2.68 1.249.927 0 1.702-.366 2.324-1.099.005.928-.029 1.536-.103 1.826-.126.474-.369.843-.727 1.106-.359.264-.867.396-1.526.396-.611 0-1.094-.132-1.447-.396-.263-.195-.424-.506-.482-.933l-1.383-.206c-.021.906.276 1.585.893 2.036.617.45 1.425.676 2.427.676.843 0 1.553-.158 2.13-.475s.999-.747 1.265-1.293c.266-.545.399-1.472.399-2.778v-7.257h-1.312v1.013zm-.68 5.451c-.442.503-.991.755-1.644.755-.659 0-1.207-.253-1.644-.759-.438-.506-.656-1.31-.656-2.411 0-1.012.221-1.775.664-2.289.442-.514.98-.771 1.612-.771.643 0 1.192.261 1.648.782.456.522.684 1.297.684 2.324 0 1.076-.221 1.865-.664 2.369zm7.912-6.652c-1.159 0-2.103.39-2.83 1.17-.728.78-1.091 1.876-1.091 3.288 0 1.365.36 2.426 1.079 3.183.72.756 1.693 1.134 2.921 1.134.975 0 1.776-.237 2.403-.711.627-.475 1.057-1.142 1.289-2l-1.47-.183c-.216.602-.509 1.039-.877 1.313-.369.274-.814.411-1.336.411-.701 0-1.286-.245-1.755-.735-.469-.49-.73-1.196-.783-2.118h6.261c.005-.169.008-.295.008-.38 0-1.386-.355-2.461-1.067-3.225-.712-.765-1.629-1.147-2.752-1.147zm-2.371 3.581c.047-.732.293-1.317.739-1.755s.995-.656 1.648-.656c.722 0 1.31.274 1.763.822.295.353.474.883.538 1.589h-4.688zm13.379.573c-.398-.172-1.1-.392-2.107-.66a23.257 23.257 0 0 1-1.257-.364c-.248-.1-.43-.227-.545-.379a.783.783 0 0 1-.174-.498c0-.29.14-.543.419-.759s.746-.324 1.399-.324c.554 0 .982.121 1.285.363.303.243.486.58.549 1.012l1.392-.189c-.09-.543-.253-.977-.49-1.3-.237-.324-.604-.581-1.103-.771-.498-.189-1.077-.284-1.735-.284a4.31 4.31 0 0 0-1.229.17c-.382.113-.684.252-.905.415a2.322 2.322 0 0 0-.7.794 2.168 2.168 0 0 0-.257 1.04c0 .411.104.786.312 1.126.208.34.514.606.917.799.403.192 1.126.42 2.17.684.775.195 1.26.355 1.455.482.279.185.419.438.419.759 0 .358-.158.671-.474.937-.316.267-.801.399-1.455.399-.648 0-1.153-.15-1.514-.45-.361-.301-.581-.732-.66-1.297l-1.407.222c.158.891.523 1.563 1.095 2.016s1.403.68 2.494.68c.659 0 1.249-.114 1.771-.344.521-.229.921-.554 1.197-.973.277-.419.415-.865.415-1.34 0-.484-.113-.891-.34-1.217a2.126 2.126 0 0 0-.937-.749zm5.775 3.213c-.211 0-.373-.034-.486-.103s-.195-.161-.245-.276c-.05-.116-.075-.377-.075-.783v-4.909h1.431v-1.106h-1.431v-2.933l-1.415.854v2.079h-1.043v1.106h1.043v4.83c0 .854.058 1.414.174 1.68.116.267.316.481.601.645s.685.245 1.202.245c.316 0 .674-.042 1.075-.126l-.205-1.257c-.26.035-.469.054-.626.054zm14.07-4.885c-.464-.211-1.319-.457-2.565-.739s-2.017-.558-2.312-.826a1.319 1.319 0 0 1-.451-1.027c0-.479.212-.89.636-1.229s1.1-.51 2.028-.51c.891 0 1.564.187 2.02.561.456.375.724.928.803 1.66l1.47-.11a3.506 3.506 0 0 0-.569-1.826c-.353-.537-.857-.944-1.514-1.222-.656-.276-1.414-.414-2.273-.414-.78 0-1.489.131-2.126.395s-1.123.649-1.455 1.158a2.949 2.949 0 0 0-.498 1.641c0 .532.135 1.013.407 1.442s.684.789 1.237 1.079c.427.227 1.172.468 2.237.724 1.064.256 1.752.443 2.063.564.485.185.833.413 1.043.685s.316.589.316.952c0 .358-.109.689-.328.992s-.552.541-1 .716c-.448.174-.964.261-1.549.261-.659 0-1.252-.115-1.779-.344-.527-.229-.916-.53-1.166-.901-.25-.372-.41-.848-.478-1.427l-1.447.126a3.91 3.91 0 0 0 .636 2.083c.403.614.959 1.074 1.668 1.38s1.587.458 2.636.458c.828 0 1.572-.151 2.233-.454.661-.304 1.168-.728 1.521-1.273a3.15 3.15 0 0 0 .53-1.742c0-.622-.161-1.172-.482-1.648-.32-.481-.818-.874-1.492-1.185zm7.66-2.482c-1.16 0-2.103.39-2.83 1.17-.728.78-1.091 1.876-1.091 3.288 0 1.365.359 2.426 1.079 3.183.719.756 1.693 1.134 2.921 1.134.975 0 1.776-.237 2.403-.711.627-.475 1.057-1.142 1.289-2l-1.47-.183c-.216.602-.509 1.039-.877 1.313-.369.274-.814.411-1.336.411-.701 0-1.286-.245-1.755-.735-.469-.49-.73-1.196-.783-2.118h6.261c.005-.169.008-.295.008-.38 0-1.386-.355-2.461-1.067-3.225-.713-.765-1.63-1.147-2.752-1.147zm-2.372 3.581c.047-.732.293-1.317.739-1.755.445-.438.995-.656 1.648-.656.722 0 1.31.274 1.763.822.295.353.475.883.538 1.589h-4.688zm15.051 1.486v-1.897c0-.633-.023-1.07-.071-1.313a2.238 2.238 0 0 0-.442-.968c-.211-.256-.541-.468-.988-.637s-1.03-.253-1.747-.253c-.722 0-1.357.099-1.905.296-.548.198-.967.48-1.257.847-.29.366-.498.847-.625 1.442l1.392.189c.153-.596.389-1.011.708-1.245s.813-.352 1.482-.352c.717 0 1.257.161 1.621.482.269.237.403.646.403 1.226 0 .053-.003.176-.008.371-.543.189-1.389.354-2.538.49-.564.068-.986.14-1.265.213a3.45 3.45 0 0 0-1.023.467c-.303.205-.548.479-.735.818s-.28.715-.28 1.126c0 .701.248 1.277.743 1.728.496.45 1.204.676 2.126.676.559 0 1.082-.092 1.569-.276s.995-.501 1.521-.949a3 3 0 0 0 .285 1.036h1.486c-.179-.321-.299-.657-.36-1.008s-.092-1.187-.092-2.509zm-1.439-.174c0 .627-.077 1.102-.229 1.423-.2.416-.514.744-.94.983-.427.24-.915.36-1.463.36-.553 0-.974-.127-1.261-.38s-.431-.569-.431-.948a1.213 1.213 0 0 1 .759-1.139c.242-.106.656-.2 1.241-.284 1.033-.147 1.808-.327 2.324-.538v.523zM192.998 88c-.276.19-.578.583-.905 1.178v-1.272h-1.28v8.396h1.423v-4.396c0-.601.079-1.154.237-1.66.105-.332.282-.591.529-.778s.527-.28.838-.28c.348 0 .696.103 1.043.308l.49-1.32c-.496-.306-.983-.458-1.462-.458a1.569 1.569 0 0 0-.913.282zm8.313 6.807c-.375.343-.841.514-1.4.514-.695 0-1.259-.256-1.691-.767s-.648-1.331-.648-2.459c0-1.111.224-1.925.672-2.438s1.03-.771 1.747-.771c.475 0 .879.143 1.213.427.335.284.568.709.699 1.272l1.384-.213c-.163-.849-.534-1.504-1.114-1.965s-1.326-.691-2.237-.691c-.722 0-1.39.17-2.004.51-.614.34-1.071.85-1.372 1.529-.3.681-.451 1.474-.451 2.38 0 1.401.349 2.479 1.047 3.229s1.622 1.126 2.771 1.126c.917 0 1.69-.272 2.319-.818.631-.545 1.021-1.3 1.174-2.265l-1.398-.182c-.1.712-.338 1.239-.711 1.582zm9.209-6.724c-.459-.245-.999-.367-1.621-.367-1.012 0-1.85.385-2.514 1.154v-4.158h-1.423v11.589h1.423v-4.593c0-.659.079-1.176.237-1.55a1.85 1.85 0 0 1 .794-.889 2.307 2.307 0 0 1 1.189-.328c.564 0 1 .162 1.309.485.309.324.463.843.463 1.554v5.32h1.423v-5.32c0-.822-.099-1.449-.296-1.882-.198-.431-.526-.77-.984-1.015zm10.568 4.7v-1.897c0-.633-.023-1.07-.071-1.313-.085-.39-.231-.713-.442-.968-.211-.256-.541-.468-.988-.637-.448-.169-1.03-.253-1.747-.253-.722 0-1.356.099-1.905.296-.548.198-.967.48-1.257.847s-.498.847-.624 1.442l1.391.189c.152-.596.389-1.011.707-1.245.319-.234.813-.352 1.482-.352.717 0 1.258.161 1.621.482.269.237.402.646.402 1.226 0 .053-.002.176-.008.371-.542.189-1.389.354-2.537.49-.564.068-.985.14-1.265.213-.38.105-.721.262-1.023.467-.304.205-.548.479-.735.818s-.281.715-.281 1.126c0 .701.248 1.277.744 1.728.494.45 1.203.676 2.126.676.559 0 1.081-.092 1.569-.276.487-.185.994-.501 1.521-.949a3 3 0 0 0 .285 1.036h1.486c-.18-.321-.3-.657-.36-1.008s-.091-1.187-.091-2.509zm-1.44-.174c0 .627-.076 1.102-.229 1.423-.2.416-.514.744-.941.983-.426.24-.914.36-1.462.36-.554 0-.974-.127-1.261-.38s-.431-.569-.431-.948a1.212 1.212 0 0 1 .759-1.139c.243-.106.656-.2 1.241-.284 1.032-.147 1.808-.327 2.323-.538v.523zm10.29-3.704c-.299-.377-.678-.669-1.139-.877s-.949-.313-1.467-.313c-.933 0-1.699.377-2.3 1.13v-4.134h-1.423V96.3h1.32v-1.052c.563.828 1.341 1.241 2.332 1.241.996 0 1.85-.393 2.561-1.178.712-.785 1.067-1.897 1.067-3.336 0-.606-.085-1.175-.253-1.707s-.402-.986-.698-1.363zm-1.182 5.605c-.453.541-.991.811-1.613.811-.764 0-1.37-.366-1.818-1.099-.273-.448-.41-1.175-.41-2.182 0-1.022.227-1.804.68-2.344s.99-.811 1.612-.811c.616 0 1.142.261 1.577.782.435.522.652 1.331.652 2.427 0 1.071-.227 1.876-.68 2.416zm4.157 1.791h1.423V84.712h-1.423v11.589zm7.4-8.585c-1.16 0-2.104.39-2.83 1.17-.728.78-1.092 1.876-1.092 3.288 0 1.365.359 2.426 1.08 3.183.719.756 1.692 1.134 2.92 1.134.975 0 1.776-.237 2.403-.711.628-.475 1.057-1.142 1.288-2l-1.47-.183c-.216.602-.509 1.039-.878 1.313s-.814.411-1.336.411c-.701 0-1.285-.245-1.754-.735-.47-.49-.73-1.196-.783-2.118h6.261c.005-.169.008-.295.008-.38 0-1.386-.355-2.461-1.067-3.225-.711-.765-1.628-1.147-2.75-1.147zm-2.373 3.581c.048-.732.294-1.317.739-1.755s.994-.656 1.648-.656c.722 0 1.309.274 1.763.822.295.353.474.883.537 1.589h-4.687zm19.763-1.162c.542-.269.947-.622 1.217-1.06.269-.438.402-.903.402-1.399 0-.532-.15-1.042-.454-1.529-.303-.487-.722-.849-1.257-1.083s-1.245-.352-2.131-.352h-4.348v11.589h4.42c.737 0 1.36-.064 1.869-.193.508-.13.932-.32 1.269-.573s.62-.613.851-1.079c.229-.467.344-.972.344-1.514 0-.675-.189-1.26-.566-1.755-.377-.497-.916-.847-1.616-1.052zm-5.036-4.056h2.315c.834 0 1.421.055 1.764.162.342.108.605.309.791.601.184.293.275.632.275 1.017 0 .405-.098.743-.296 1.012s-.491.461-.882.577c-.295.089-.782.134-1.462.134h-2.506v-3.503zm5.399 7.838a1.68 1.68 0 0 1-.586.645 2.49 2.49 0 0 1-.885.316c-.2.037-.549.055-1.043.055h-2.886V90.95h2.68c.737 0 1.304.064 1.696.193s.699.354.92.672c.222.319.332.694.332 1.127.001.368-.075.694-.228.975zm6.071.245c.242-.256.791-.741 1.645-1.458 1.021-.864 1.754-1.544 2.193-2.04.439-.495.755-.967.945-1.415.189-.447.284-.903.284-1.367 0-.912-.324-1.676-.973-2.293-.647-.616-1.528-.925-2.64-.925-1.102 0-1.979.286-2.633.858-.653.571-1.03 1.402-1.131 2.493l1.463.15c.005-.727.213-1.296.625-1.707.41-.411.959-.617 1.644-.617.648 0 1.174.194 1.577.581.403.388.605.863.605 1.428 0 .537-.223 1.107-.664 1.711-.443.604-1.295 1.422-2.555 2.454-.811.664-1.432 1.249-1.861 1.756-.43.506-.741 1.02-.937 1.541a2.513 2.513 0 0 0-.166.988h7.66v-1.368h-5.684c.16-.257.361-.514.603-.77zm14.015-4.027c.543-.269.948-.622 1.217-1.06.27-.438.403-.903.403-1.399 0-.532-.151-1.042-.454-1.529s-.723-.849-1.258-1.083c-.534-.234-1.244-.352-2.13-.352h-4.348v11.589h4.419c.738 0 1.361-.064 1.869-.193.509-.13.932-.32 1.27-.573.337-.253.62-.613.85-1.079.229-.467.344-.972.344-1.514 0-.675-.188-1.26-.565-1.755-.376-.497-.915-.847-1.617-1.052zm-5.035-4.056h2.315c.833 0 1.421.055 1.763.162.343.108.606.309.791.601.184.293.276.632.276 1.017 0 .405-.099.743-.296 1.012-.198.269-.492.461-.882.577-.296.089-.782.134-1.462.134h-2.506v-3.503zm5.399 7.838c-.152.282-.348.497-.585.645s-.532.253-.886.316c-.199.037-.548.055-1.043.055h-2.885V90.95h2.68c.737 0 1.303.064 1.695.193s.699.354.921.672c.222.319.332.694.332 1.127 0 .368-.077.694-.229.975zm15.248-1.142a81.98 81.98 0 0 0-.616 1.857c-.116-.38-.3-.951-.554-1.716l-2.742-8.205h-2.309V96.3h1.479v-9.865l3.352 9.865h1.383l3.367-9.699V96.3h1.479V84.712h-2.063l-2.776 8.063zm14.253.008v-1.897c0-.633-.023-1.07-.071-1.313a2.238 2.238 0 0 0-.442-.968c-.211-.256-.54-.468-.988-.637s-1.03-.253-1.747-.253c-.722 0-1.357.099-1.905.296-.548.198-.967.48-1.257.847s-.498.847-.624 1.442l1.391.189c.153-.596.389-1.011.708-1.245.318-.234.813-.352 1.482-.352.716 0 1.257.161 1.62.482.269.237.403.646.403 1.226 0 .053-.003.176-.008.371-.543.189-1.389.354-2.538.49-.563.068-.985.14-1.265.213a3.45 3.45 0 0 0-1.023.467 2.306 2.306 0 0 0-.735.818c-.188.34-.28.715-.28 1.126 0 .701.247 1.277.743 1.728.495.45 1.204.676 2.126.676.559 0 1.082-.092 1.569-.276s.994-.501 1.521-.949c.042.396.137.741.284 1.036h1.486c-.179-.321-.299-.657-.359-1.008s-.091-1.187-.091-2.509zm-1.439-.174c0 .627-.077 1.102-.229 1.423-.2.416-.514.744-.94.983-.428.24-.915.36-1.463.36-.554 0-.974-.127-1.261-.38s-.431-.569-.431-.948a1.212 1.212 0 0 1 .759-1.139c.243-.106.656-.2 1.241-.284 1.032-.147 1.808-.327 2.324-.538v.523zM312.716 88c-.276.19-.578.583-.905 1.178v-1.272h-1.28v8.396h1.423v-4.396c0-.601.079-1.154.237-1.66.104-.332.281-.591.529-.778s.527-.28.838-.28c.348 0 .695.103 1.044.308l.489-1.32c-.495-.306-.982-.458-1.462-.458a1.567 1.567 0 0 0-.913.282zm10.185-.095h-1.842l-3.368 3.415v-6.608h-1.423v11.589h1.423v-3.328l1.004-.965 2.775 4.293h1.755l-3.534-5.28 3.21-3.116zm5.225-.189c-1.159 0-2.103.39-2.83 1.17s-1.091 1.876-1.091 3.288c0 1.365.359 2.426 1.079 3.183.72.756 1.692 1.134 2.921 1.134.975 0 1.775-.237 2.403-.711.627-.475 1.057-1.142 1.288-2l-1.47-.183c-.217.602-.509 1.039-.878 1.313s-.814.411-1.336.411c-.701 0-1.286-.245-1.755-.735s-.729-1.196-.782-2.118h6.261c.005-.169.008-.295.008-.38 0-1.386-.355-2.461-1.067-3.225-.712-.765-1.629-1.147-2.751-1.147zm-2.371 3.581c.047-.732.293-1.317.738-1.755s.995-.656 1.648-.656c.722 0 1.31.274 1.763.822.295.353.475.883.538 1.589h-4.687zm10.734 3.786c-.211 0-.373-.034-.486-.103s-.195-.161-.245-.276c-.05-.116-.075-.377-.075-.783v-4.909h1.431v-1.106h-1.431v-2.933l-1.415.854v2.079h-1.043v1.106h1.043v4.83c0 .854.059 1.414.174 1.68.116.267.316.481.602.645.284.163.685.245 1.201.245.316 0 .675-.042 1.075-.126l-.206-1.257a4.94 4.94 0 0 1-.625.054zm7.968-6.813c-.548-.369-1.181-.554-1.897-.554-.548 0-1.014.106-1.398.32-.385.213-.73.533-1.036.96v-1.091h-1.296v11.612h1.423V95.43c.242.306.552.559.929.759.377.201.803.301 1.276.301.648 0 1.267-.183 1.854-.549.588-.367 1.036-.894 1.345-1.581.308-.688.462-1.462.462-2.32 0-.801-.14-1.538-.419-2.21s-.695-1.192-1.243-1.56zm-.47 6.248c-.451.535-.992.803-1.625.803-.622 0-1.151-.258-1.589-.774s-.656-1.315-.656-2.396.233-1.903.7-2.471c.466-.566 1.002-.85 1.608-.85.611 0 1.137.267 1.577.799.439.532.66 1.333.66 2.403.001 1.122-.224 1.951-.675 2.486zm4.138 1.783h1.423V84.712h-1.423v11.589zm10.75-3.518v-1.897c0-.633-.023-1.07-.07-1.313-.085-.39-.232-.713-.443-.968-.211-.256-.54-.468-.988-.637-.447-.169-1.03-.253-1.747-.253-.722 0-1.356.099-1.904.296-.549.198-.968.48-1.257.847-.29.366-.498.847-.625 1.442l1.392.189c.152-.596.389-1.011.707-1.245.319-.234.813-.352 1.482-.352.717 0 1.257.161 1.62.482.27.237.403.646.403 1.226 0 .053-.003.176-.008.371-.543.189-1.389.354-2.537.49-.564.068-.985.14-1.265.213-.38.105-.721.262-1.024.467a2.325 2.325 0 0 0-.735.818c-.187.34-.28.715-.28 1.126 0 .701.248 1.277.743 1.728s1.204.676 2.127.676c.558 0 1.081-.092 1.568-.276s.995-.501 1.522-.949c.042.396.137.741.284 1.036h1.486a3.1 3.1 0 0 1-.359-1.008c-.062-.35-.092-1.187-.092-2.509zm-1.438-.174c0 .627-.076 1.102-.229 1.423-.2.416-.514.744-.94.983-.427.24-.914.36-1.462.36-.554 0-.974-.127-1.262-.38a1.212 1.212 0 0 1-.431-.948 1.213 1.213 0 0 1 .759-1.139c.243-.105.656-.2 1.241-.284 1.033-.147 1.808-.327 2.324-.538v.523zm8.735 2.198c-.375.343-.841.514-1.399.514-.696 0-1.26-.256-1.692-.767-.432-.511-.647-1.331-.647-2.459 0-1.111.224-1.925.672-2.438.447-.514 1.03-.771 1.747-.771.474 0 .879.143 1.213.427.335.284.568.709.7 1.272l1.383-.213c-.163-.849-.535-1.504-1.114-1.965-.58-.461-1.325-.691-2.237-.691-.722 0-1.39.17-2.004.51s-1.071.85-1.371 1.529c-.301.681-.451 1.474-.451 2.38 0 1.401.35 2.479 1.048 3.229s1.621 1.126 2.771 1.126c.917 0 1.69-.272 2.32-.818.63-.545 1.021-1.3 1.174-2.265l-1.399-.182c-.103.712-.34 1.239-.714 1.582zm10.916-2.72c0-1.386-.355-2.461-1.067-3.225-.711-.765-1.628-1.146-2.751-1.146-1.159 0-2.103.39-2.83 1.17-.727.78-1.091 1.876-1.091 3.288 0 1.365.36 2.426 1.079 3.183.72.756 1.693 1.134 2.921 1.134.976 0 1.776-.237 2.403-.711.627-.475 1.057-1.142 1.289-2l-1.471-.183c-.216.602-.509 1.039-.878 1.313-.368.274-.813.411-1.336.411-.7 0-1.285-.245-1.755-.735-.469-.49-.729-1.196-.782-2.118h6.261c.005-.17.008-.296.008-.381zm-6.19-.79c.047-.732.294-1.317.739-1.755s.994-.656 1.648-.656c.722 0 1.309.274 1.763.822.295.353.474.883.537 1.589h-4.687z"/><path fill="#0041AB" d="M100 77h280v2H100z"/><path fill="#013892" d="M100.567 67.084h13.43v-3.702h-8.632v-7.936h7.919v-3.701h-7.919v-6.458h8.632v-3.769h-13.43v25.566zm30.262-19.174h-4.997l-1.66 3.835-.382 1.394-.398-1.394-1.544-3.835h-5.229l4.764 9.346-5.03 9.828h5.03l1.859-4.184.481-1.743.382 1.743 1.859 4.184h4.93l-4.864-9.828 4.799-9.346zm11.238-.548c-.918 0-1.724.24-2.415.722a3.705 3.705 0 0 0-1.436 1.935V47.91h-4.383v25.598h4.184v-8.565c.454.886 1.04 1.544 1.76 1.976a4.376 4.376 0 0 0 2.291.647c.598 0 1.129-.066 1.594-.199 2.036-.708 3.055-2.866 3.055-6.475v-6.425c0-1.903-.357-3.563-1.071-4.979-.715-1.418-1.908-2.126-3.579-2.126zm.266 13.463c0 2.225-.758 3.337-2.274 3.337-1.229-.188-1.843-1.256-1.843-3.204v-6.906c0-1.007.185-1.807.556-2.398.371-.592.866-.888 1.486-.888.797 0 1.342.249 1.635.747.293.498.44 1.278.44 2.34v6.972zm21.198-11.064c-.443-.802-1.099-1.402-1.967-1.801-.869-.398-2.034-.598-3.495-.598-1.472 0-2.653.199-3.544.598-.891.398-1.569 1.004-2.034 1.817s-.78 1.835-.946 3.063c-.089.653-.149 1.348-.183 2.084s-.05 1.602-.05 2.598c0 2.037.083 3.683.249 4.938.166 1.257.487 2.27.963 3.038.476.77 1.162 1.328 2.059 1.677.896.349 2.13.523 3.702.523 1.671 0 2.974-.318 3.91-.955.935-.636 1.577-1.491 1.925-2.564s.523-2.318.523-3.735v-3.32c0-1.781-.075-3.254-.224-4.415-.149-1.163-.445-2.146-.888-2.948zm-3.287 11.678c0 1.029-.174 1.751-.523 2.166s-.944.623-1.785.623c-.708 0-1.248-.241-1.619-.723s-.556-1.17-.556-2.066v-6.973c0-1.328.152-2.276.457-2.847.304-.569.921-.854 1.851-.854.608 0 1.073.13 1.395.39.321.261.531.661.631 1.204.1.542.149 1.311.149 2.307v6.773zm13.263-9.96V47.91h-4.25v19.174h4.416V56.127c0-1.372.329-2.282.988-2.73.658-.448 1.486-.672 2.482-.672h.863v-5.163c-2.036 0-3.536 1.305-4.499 3.917zm12.35-8.915h-4.465v5.346h-1.76v3.154h1.76v12.948c0 2.191 1.317 3.287 3.951 3.287h.291c.116 0 .44-.028.971-.083l1.112-.066v-3.47c-.354 0-.614-.006-.78-.017s-.346-.033-.54-.066a.534.534 0 0 1-.415-.308c-.083-.171-.125-.483-.125-.938V51.064h1.859V47.91h-1.859v-5.346zm17.43 7.147c-.432-.725-1.078-1.292-1.941-1.701-.455-.21-.972-.371-1.553-.481s-1.237-.166-1.967-.166c-1.881 0-3.478.479-4.789 1.436-1.312.958-1.967 2.687-1.967 5.188v5.711c0 1.815.229 3.268.689 4.357.459 1.091 1.065 1.888 1.818 2.391.752.504 1.511.816 2.274.938a16.65 16.65 0 0 0 2.589.183c.985 0 1.84-.152 2.565-.457a4.59 4.59 0 0 0 1.817-1.353c.952-1.151 1.428-2.872 1.428-5.163h-4.416c0 1.218-.133 2.095-.398 2.631-.266.537-.686.85-1.262.938-.243 0-.426.022-.547.066-.664 0-1.182-.241-1.552-.723-.371-.481-.556-1.214-.556-2.199v-2.938h8.815v-2.64c0-1.395-.066-2.564-.199-3.511s-.416-1.781-.848-2.507zm-3.386 5.304h-4.382v-1.942c0-1.538.725-2.307 2.175-2.307.929 0 1.53.213 1.801.639s.407.982.407 1.668v1.942zm13.363-3.536V47.91h-4.25v19.174h4.416V56.127c0-1.372.329-2.282.988-2.73.658-.448 1.485-.672 2.481-.672h.863v-5.163c-2.035 0-3.535 1.305-4.498 3.917zm11.653-.282c.376-.266.835-.398 1.378-.398.652 0 1.143.213 1.469.639s.49 1.188.49 2.282h4.531c0-1.505-.252-2.725-.755-3.66-.504-.935-1.226-1.607-2.167-2.017-.94-.409-2.063-.614-3.369-.614-1.782 0-3.314.371-4.599 1.112s-1.926 1.947-1.926 3.619c.1.974.232 1.721.398 2.24.288.875.857 1.699 1.71 2.474.409.365.894.759 1.453 1.179.559.421 1.153.836 1.784 1.245 1.294.853 2.014 1.339 2.157 1.461.477.398.715.996.715 1.793 0 1.085-.631 1.71-1.893 1.876-.664 0-1.165-.235-1.502-.706-.338-.47-.507-1.143-.507-2.017l.066-.946h-4.449a2.537 2.537 0 0 0-.033.415v.465c0 1.339.279 2.463.839 3.37.559.907 1.297 1.571 2.216 1.992.919.42 1.948.631 3.087.631 3.797 0 5.961-1.272 6.492-3.818.076-.343.133-.661.166-.955.033-.293.049-.583.049-.871 0-1.007-.224-1.876-.672-2.606s-.971-1.33-1.568-1.801-1.512-1.104-2.74-1.901c-.631-.42-1.156-.78-1.576-1.079a14.82 14.82 0 0 1-1.129-.88c-.365-.276-.592-.741-.681-1.394.002-.488.19-.864.566-1.13zm86.469 15.887h4.481v-4.532h-4.481v4.532zm22.244-12.551c0-1.759-.103-2.96-.308-3.602a4.956 4.956 0 0 0-1.021-1.776c-.51-.62-1.207-1.073-2.092-1.361a8.596 8.596 0 0 0-4.192-.299 9.553 9.553 0 0 0-1.354.332c-.83.276-1.555.936-2.175 1.976-.619 1.04-.93 2.617-.93 4.73v6.906c0 1.306.235 2.424.706 3.354.47.93 1.153 1.635 2.05 2.116s1.97.723 3.221.723c1.339 0 2.462-.222 3.37-.664a4.36 4.36 0 0 0 2.042-2.034c.453-.913.681-2.077.681-3.494v-1.876h-4.466v1.876c0 1.815-.542 2.723-1.627 2.723-1.019 0-1.527-.907-1.527-2.723v-8.301c0-.796.155-1.392.465-1.784s.687-.589 1.129-.589c.432 0 .8.144 1.104.432.305.287.457.642.457 1.063v2.273h4.467zm16.035-4.772c-.442-.802-1.099-1.402-1.967-1.801-.869-.398-2.034-.598-3.495-.598-1.472 0-2.653.199-3.544.598s-1.568 1.004-2.033 1.817-.78 1.835-.946 3.063c-.089.653-.149 1.348-.183 2.084s-.05 1.602-.05 2.598c0 2.037.083 3.683.249 4.938.166 1.257.486 2.27.963 3.038.476.77 1.162 1.328 2.059 1.677.896.349 2.13.523 3.701.523 1.671 0 2.975-.318 3.91-.955a4.82 4.82 0 0 0 1.925-2.564c.349-1.073.523-2.318.523-3.735v-3.32c0-1.781-.075-3.254-.225-4.415-.148-1.163-.445-2.146-.887-2.948zm-3.287 11.678c0 1.029-.174 1.751-.522 2.166s-.944.623-1.785.623c-.708 0-1.248-.241-1.618-.723-.371-.481-.556-1.17-.556-2.066v-6.973c0-1.328.151-2.276.456-2.847.305-.569.921-.854 1.851-.854.608 0 1.073.13 1.395.39.321.261.531.661.631 1.204.1.542.149 1.311.149 2.307v6.773zm29.772-12.981c-.936-.687-2.039-1.029-3.312-1.029a5.91 5.91 0 0 0-2.697.622c-.825.415-1.409 1.021-1.752 1.818a2.367 2.367 0 0 0-.73-1.304c-.388-.359-.886-.639-1.494-.838s-1.239-.299-1.892-.299c-.941 0-1.808.207-2.599.622s-1.342 1.021-1.651 1.818h-.066V47.91h-4.399v19.174h4.399V53.919c0-1.062.154-1.837.465-2.323.166-.266.39-.471.672-.614.282-.145.617-.216 1.005-.216.785 0 1.355.216 1.71.647.354.432.531 1.096.531 1.991v13.68h4.448V53.985c0-2.124.714-3.187 2.142-3.187.774 0 1.331.224 1.668.672.338.448.507 1.176.507 2.183v13.431h4.449V51.347c0-1.24-.468-2.202-1.404-2.889z"/><path fill="#C00" d="M236.984 67.084h4.781V41.519h-4.781v25.565zm18.36-19.655c-.906 0-1.748.235-2.522.705-.774.471-1.295 1.121-1.561 1.951V47.91h-4.416v19.174h4.416V54.118c0-.974.204-1.715.614-2.224.409-.51.946-.764 1.61-.764.354 0 .649.063.888.19.238.128.429.308.572.54.266.465.398 1.173.398 2.124v13.099h4.35V51.679c0-1.361-.423-2.41-1.27-3.146-.846-.736-1.872-1.104-3.079-1.104zm17.48 1.593.133.93c-.41-.886-.919-1.538-1.527-1.959-.609-.421-1.411-.631-2.407-.631l-1.129.066c-2.423.432-3.636 2.64-3.636 6.623v6.607c0 3.818 1.052 6.076 3.154 6.773.498.133.975.199 1.428.199.918 0 1.737-.244 2.457-.73a3.924 3.924 0 0 0 1.527-1.992v2.175h4.383V41.519h-4.383v7.503zm0 11.637c0 1.239-.211 2.145-.631 2.714-.421.57-.924.855-1.511.855-.564 0-1.034-.308-1.411-.922-.376-.614-.564-1.496-.564-2.647v-6.541c0-1.084.141-1.914.424-2.489.281-.576.799-.863 1.552-.863.687 0 1.214.307 1.585.921s.557 1.425.557 2.432v6.54zm9.826 6.425h4.383V47.91h-4.383v19.174zm0-21.531h4.383v-4.034h-4.383v4.034zm22.212 18.543v-11.57c0-1.129-.222-2.081-.664-2.855-.443-.774-1.146-1.354-2.108-1.735s-2.214-.572-3.752-.572c-.73 0-1.395.056-1.992.166s-1.135.26-1.609.448a4.244 4.244 0 0 0-2.158 1.942c-.488.896-.73 2.13-.73 3.701h4.166c0-.299.012-.559.033-.78.022-.221.05-.414.083-.58.077-.321.243-.653.498-.996.122-.166.315-.291.581-.374s.619-.124 1.063-.124c1.472 0 2.208.586 2.208 1.76 0 .63-.227 1.14-.681 1.526-.354.321-1.123.726-2.308 1.212-.62.266-1.132.49-1.535.673a9.534 9.534 0 0 0-.987.506c-1.053.598-1.859 1.331-2.424 2.2-.564.868-.848 2.083-.848 3.644 0 2.667.93 4.311 2.789 4.931.786.232 1.5.349 2.142.349 1.693 0 3.065-.874 4.117-2.623 0 .243-.022.448-.066.614.122.786.222 1.295.299 1.527h4.25c-.246-.776-.367-1.773-.367-2.99zm-4.449-4.964c0 1.815-.1 3.005-.299 3.569s-.542 1.002-1.029 1.312c-.122.077-.442.149-.963.216-.708-.11-1.226-.359-1.552-.747s-.534-.957-.623-1.71c.066-.62.24-1.17.523-1.651.281-.481.6-.866.954-1.154.255-.21.515-.406.78-.589s.448-.308.548-.374l1.66-1.029v2.157z"/></g></switch></svg>