<svg xmlns="http://www.w3.org/2000/svg" xml:space="preserve" style="enable-background:new 0 0 24 24" viewBox="1 1 22 22"><path d="M12.15399 10.72955 8.08868 5.0412H5.92041l5.03589 7.0459.63391.88635 4.31043 6.03613h2.16827l-5.28369-7.39367z"></path><path d="M21.15979 1H2.84021C1.82385 1 1 1.82385 1 2.84021v18.31958C1 22.17615 1.82385 23 2.84021 23h18.31958C22.17615 23 23 22.17615 23 21.15979V2.84021C23 1.82385 22.17615 1 21.15979 1zm-5.92444 19-4.36255-6.21301L5.41144 20H4l6.24689-7.10468L4 4h4.76465l4.13013 5.88196L18.06958 4h1.41138l-5.95697 6.77564L20 20h-4.76465z"></path></svg>