<svg xmlns="http://www.w3.org/2000/svg" xml:space="preserve" id="Layer_1" style="enable-background:new 0 0 32 32" version="1.1" viewBox="0 0 32 32"><style>.st1{fill:#fff}</style><linearGradient id="SVGID_1_" x1="5.803" x2="26.197" y1="-1.661" y2="33.661" gradientTransform="matrix(1 0 0 -1 0 32)" gradientUnits="userSpaceOnUse"><stop offset="0" style="stop-color:#fec053"/><stop offset=".327" style="stop-color:#f2203e"/><stop offset=".648" style="stop-color:#b729a8"/><stop offset="1" style="stop-color:#5342d6"/></linearGradient><path d="M4 0h24c2.2 0 4 1.8 4 4v24c0 2.2-1.8 4-4 4H4c-2.2 0-4-1.8-4-4V4c0-2.2 1.8-4 4-4z" style="fill:url(#SVGID_1_)"/><path d="M21.2 5H10.8C7.6 5 5 7.7 5 10.9v10.2c0 3.2 2.6 5.9 5.8 5.9h10.4c3.2 0 5.8-2.7 5.8-5.9V10.9C27 7.7 24.4 5 21.2 5zM25 20.9c0 2.2-1.8 4.1-4 4.1H11c-2.2 0-4-1.9-4-4.1V11c0-2.2 1.7-4 4-4h10c2.2 0 4 1.9 4 4.1v9.8z" class="st1"/><path d="M16 10.4c-3.1-.1-5.7 2.4-5.8 5.5-.1 3.1 2.4 5.7 5.5 5.8 3.1.1 5.7-2.4 5.8-5.5v-.1c.1-3.2-2.4-5.7-5.5-5.7zm0 9.2c-2 0-3.7-1.6-3.7-3.6s1.6-3.7 3.6-3.7 3.7 1.6 3.7 3.6v.1c0 2-1.6 3.6-3.6 3.6z" class="st1"/><ellipse cx="21.8" cy="10" class="st1" rx="1.2" ry="1.3"/></svg>