<svg xmlns="http://www.w3.org/2000/svg" xml:space="preserve" style="enable-background:new 0 0 512 512" viewBox="0 0 512 512">
<rect width="512" height="512" x="-512" y="-512" rx="70" ry="70" style="fill:#cb2027;fill-opacity:1;stroke:none" transform="scale(-1)"/>
<path d="M645.856 122.682c-93.402 0-140.5 66.963-140.5 122.815 0 33.812 12.796 63.89 40.25 75.089 4.505 1.858 8.54.065 9.849-4.916.906-3.438 3.055-12.14 4.015-15.777 1.31-4.928.799-6.646-2.833-10.957-7.916-9.332-12.985-21.416-12.985-38.551 0-49.677 37.175-94.154 96.794-94.154 52.797 0 81.801 32.26 81.801 75.329 0 56.692-25.089 104.534-62.325 104.534-20.563 0-35.953-17-31.031-37.865 5.908-24.908 17.355-51.777 17.355-69.771 0-16.087-8.646-29.507-26.513-29.507-21.021 0-37.913 21.752-37.913 50.884 0 18.558 6.271 31.112 6.271 31.112s-21.518 91.16-25.291 107.125c-7.506 31.798-1.128 70.766-.584 74.692.315 2.343 3.317 2.907 4.68 1.142 1.927-2.53 26.983-33.441 35.482-64.34 2.417-8.74 13.831-54.032 13.831-54.032 6.835 13.038 26.794 24.49 48.024 24.49 63.19 0 106.072-57.603 106.072-134.718.006-58.317-49.387-112.624-124.449-112.624z" style="fill:#fff" transform="matrix(1.02262 0 0 1.02262 -396.256 -44.456)"/>
</svg>