<svg xmlns="http://www.w3.org/2000/svg" xml:space="preserve" viewBox="13.57 28.24 373.4 62.83"><switch><g fill-rule="evenodd" clip-rule="evenodd"><path fill="#E94235" d="M65.408 63.86c3.989-.601 1.865 3.419 2.048 11.729.071 3.252-.079 8.668.118 10.602.433 4.261 1.807 4.437 6.089 4.747 5.081-.13 5.252-4.878 5.252-4.878l.182-25.137c-3.474-5.311-13.689 2.937-13.689 2.937z"/><path fill="#34A853" d="M65.634 54.049c-13.47 9.6-23.489 18.188-23.994 26.861-.505 8.673 8.083 9.936 8.083 9.936 6.146-3.452 6.23-13.304 5.388-11.367.337 2.105-5.894 5.642-5.304.842 1.516-5.81 8.419-10.021 12.713-13.978-.311.286 11.732-10.222 16.501-5.558-.001-1.683.083-16.335-13.387-6.736z"/><path fill="#ADE4BC" d="M51.526 79.623a2.528 2.528 0 0 1-.589-1.061c.02.394.182.765.589 1.061zm14.206-17.228s-6.173 4.259-11.614 10.339c0 0-3.878 3.212-3.181 5.829-.065-1.303 1.505-2.863 1.505-2.863s21.413-22.318 26.696-14.458c0-.001-.359-7.575-13.406 1.153z"/><path fill="#3A7AE3" d="M61.95 57.596c-.759-8.679-3.905-13.019-7.918-12.476-4.013.542-15.293 13.018-21.476 30.918 0 0 10.087-20.721 18.982-21.697 2.277-.434 2.386 3.58 2.386 3.58S55.66 90.9 45.681 89.273c0 0 1.462 1.11 3.508 1.569 3.724.835 9.814-.203 11.678-10.031-.002 0 1.842-14.537 1.083-23.215z"/><path fill="#4285F4" d="M36.352 53.582c-23.376 18.181-22.778 37.264-12.528 34.66 10.25-2.604 4.881-7.16 14.806-24.571 12.04-19.69 18.385-17.737 18.385-17.737s-3.855-5.425-20.663 7.648z"/><path fill="#89B5FF" d="M40.337 58.057c-8.967 12.586-9.064 21.261-11.475 25.44-1.934 3.059-4.893 3.28-4.893 3.28-5.962 1.704-6.817-5.939-6.817-5.939-1.139 9.275 6.67 7.404 6.67 7.404 10.25-2.604 4.881-7.16 14.806-24.571 12.04-19.69 18.385-17.737 18.385-17.737s-5.054-4.272-16.676 12.123z"/><path fill="#82B0FE" d="M51.537 54.341a2.7 2.7 0 0 1 1.255.316c-.32-.272-.727-.417-1.255-.316zm3.471 7.052s.332-5.366-2.215-6.736c1.063.901 1.13 3.264 1.13 3.264S55.659 90.9 45.68 89.273c0 0 6.159 5.254 8.895-11.282-.001-.001 1.192-7.92.433-16.598z"/><circle cx="73.606" cy="38.218" r="8.436" fill="#E94235"/><path fill="#34A853" d="M61.024 38.48c-.11-1.174-.862-2.387-.862-2.387l-36.549-1.69c-2.408-.788-4.779-4.188-4.779-4.188-6.19-7.533-2.604 21.135-2.416 22.757.16 1.379 3.118-1.501 3.118-1.501 2.503-5.349 4.738-5.787 4.738-5.787l36.317-5.039c0 .001.535-1.085.433-2.165z"/><path fill="#E94235" d="M55.038 37.233c.139-.517.36-1.001.635-1.365-4.33-.196-11.331-.517-18.566-.849l.082 1.909a1.132 1.132 0 0 1-1.091 1.193 1.195 1.195 0 0 1-1.222-1.144l-.086-2.065-2.388-.11L32.49 37c.028.669-.507 1.229-1.204 1.252-.707.023-1.309-.513-1.337-1.197l-.092-2.369-6.415-.295s1.501 4.75.776 11.39l31.665-4.461c-.867-1.011-1.244-2.608-.845-4.087zm-14.115 2.813c-.179.538-.738.825-1.252.638-.52-.189-.793-.789-.605-1.335.186-.543.755-.82 1.267-.622.506.195.769.784.59 1.319zm4.302-.363c-.161.512-.669.784-1.139.604-.474-.183-.725-.756-.557-1.275.167-.518.684-.78 1.151-.59.463.187.706.75.545 1.261zm4.289-.183c-.144.488-.604.746-1.031.572-.431-.175-.661-.72-.51-1.215.149-.492.617-.741 1.041-.56.421.181.644.718.5 1.203zm3.572-.31c-.13.467-.552.712-.944.545-.396-.169-.609-.692-.473-1.165.135-.472.563-.709.954-.533.387.174.593.689.463 1.153zm5.254-2.373c-.758-.371-1.589.112-1.846 1.093-.26.989.17 2.081.949 2.425.764.337 1.568-.181 1.807-1.143.237-.954-.166-2.011-.91-2.375z"/><path fill="#34A853" d="m64.065 37.298-1.991-.253s-.337-.89-.809-.894c-.063-.001-.553-.021-1.365-.057.694.982.983 2.392.665 3.709-.08.329-.193.63-.332.903l1.365-.192.756-.944 1.832-.455c.355-.026.613-.451.58-.948-.034-.498-.346-.887-.701-.869z"/><path fill="#1E853A" d="M20.646 40.415c-.215-6.641-1.867-12.073-3.767-12.173-1.99-.104-3.504 5.632-3.292 12.857.213 7.271 2.075 12.78 4.069 12.283 1.903-.474 3.206-6.286 2.99-12.967z"/><path fill="#FABB05" d="M27.312 40.291c-.152-3.588-1.211-6.491-2.393-6.495-.246-.001-.477.128-.689.357.938.813 1.691 3.326 1.816 6.311.121 2.9-.383 5.454-1.206 6.476.206.151.417.221.633.189 1.181-.175 1.991-3.239 1.839-6.838z"/><path fill="#FABB05" d="m26.772 49.668-.429-3.402c-.03-.24-.266-.397-.528-.351-.264.046-.454.281-.423.524l.43 3.401c-.381.205-.628.536-.588.848.053.416.592.629 1.196.479.594-.148 1.028-.594.977-.997-.035-.274-.292-.451-.635-.502z"/><path fill="#E94235" d="m25.114 52.981.208-6.948c-.001-.247-.221-.432-.491-.413-.272.02-.494.237-.493.487l-.222 6.983c-.426.188-.731.521-.73.855.001.438.53.697 1.172.578.631-.117 1.133-.557 1.13-.982 0-.283-.237-.482-.574-.56zm90.334-9.274c-.019-.583.246-.902.793-.957l.903-.082v-2.216h-5.416l-4.677 12.363h-.055l-4.65-12.363h-5.498v2.325l1.668.109-.739 12.719c-.037.456-.265.702-.684.739l-.985.082v2.215h6.456v-2.324l-1.778-.082.547-10.148h.055l4.158 10.805h2.599l4.212-10.914h.055l.52 9.655c.018.438-.219.675-.711.712l-.984.082v2.215h6.592v-2.324l-1.696-.082-.685-12.529zm16.166 12.501c-.101-.109-.151-.311-.151-.603V45.431c-1.696-.639-3.319-.958-4.869-.958-2.407 0-4.212.693-5.416 2.079s-1.805 3.319-1.805 5.799c0 2.062.447 3.684 1.34 4.869.893 1.186 2.27 1.778 4.13 1.778 1.586 0 2.835-.657 3.747-1.97l.083.027v1.586h4.349v-2.188l-.875-.055c-.255-.017-.433-.081-.533-.19zm-3.323-1.915c0 .62-.255 1.172-.766 1.654-.511.483-1.167.726-1.97.726-1.896 0-2.845-1.478-2.845-4.432 0-1.623.273-2.927.821-3.911.547-.985 1.431-1.478 2.653-1.478.893 0 1.595.119 2.106.355v7.086zm12.333 2.243c-.611 0-1.063-.16-1.354-.479-.292-.319-.438-.88-.438-1.683V47.18h3.364l.273-2.297h-3.638v-2.899h-1.778c-.365.984-.766 1.746-1.204 2.283-.438.538-1.085.844-1.942.917l-.273 1.996h1.942v7.304c0 .547.009.962.027 1.244.018.283.1.671.246 1.163s.356.866.629 1.121c.273.256.693.488 1.258.697.565.21 1.258.315 2.079.315 1.404 0 2.562-.319 3.474-.958l-.821-2.106c-.618.385-1.234.576-1.844.576zm9.611-11.365c-.693.465-1.204 1.053-1.532 1.764v-2.051h-4.623v2.215l1.148.082c.255.019.433.087.534.205.1.119.15.324.15.616v7.576c0 .328-.064.552-.191.671-.128.118-.329.195-.602.232l-.902.082v2.078h7.331v-2.16l-2.38-.109v-6.347c0-.802.232-1.463.698-1.982.465-.52 1.062-.78 1.792-.78.292 0 .538.046.738.137.182.092.274.319.274.685v1.258l2.543-.191v-4.075a5.813 5.813 0 0 0-2.584-.603c-.903-.001-1.701.232-2.394.697zm9.509-2.093c.62 0 1.125-.187 1.518-.561.392-.374.588-.853.588-1.437 0-.583-.196-1.07-.588-1.463-.393-.393-.898-.588-1.518-.588s-1.122.195-1.504.588c-.383.393-.575.88-.575 1.463 0 .584.191 1.063.575 1.437.382.375.884.561 1.504.561zm1.942 1.806h-4.896v2.27l.957.055c.255 0 .433.055.534.164.1.11.15.319.15.63v7.604c0 .529-.265.821-.793.876l-.902.082v2.078h6.51v-2.188l-1.559-.082V44.884zm23.445 4.348c0-1.586-.355-2.776-1.067-3.569-.711-.793-1.723-1.19-3.036-1.19-1.75 0-3.137.73-4.158 2.188-.62-1.458-1.819-2.188-3.597-2.188s-3.178.73-4.199 2.188v-1.777h-4.623v2.215l1.148.082c.255.019.433.087.534.205.1.119.15.333.15.644v7.549h-.027c0 .328-.064.552-.191.671-.128.118-.328.195-.602.232l-.902.082v2.078h6.455v-2.188l-1.477-.082v-6.62c0-.783.219-1.44.657-1.969.438-.529 1.08-.794 1.928-.794s1.386.242 1.614.726.342 1.227.342 2.229v5.635c0 .328-.064.552-.191.671-.127.118-.328.195-.602.232l-.903.082v2.078h6.456v-2.188l-1.504-.082v-6.565c0-.856.223-1.54.67-2.051s1.089-.767 1.928-.767 1.372.242 1.601.726c.228.483.342 1.227.342 2.229v5.662c-.019.311-.087.524-.205.644-.119.118-.315.195-.588.232l-.902.082v2.078h6.51v-2.188l-1.559-.082v-7.14zm14.194-2.995c-.429-.465-1.021-.875-1.778-1.23-.757-.355-1.683-.534-2.776-.534-1.569 0-3 .493-4.294 1.478-.675.529-1.213 1.29-1.614 2.284-.401.994-.602 2.165-.602 3.515 0 2.407.538 4.226 1.614 5.457 1.076 1.23 2.566 1.847 4.472 1.847s3.469-.647 4.691-1.942c1.221-1.295 1.833-3.2 1.833-5.717 0-1.204-.15-2.247-.451-3.132-.302-.886-.667-1.561-1.095-2.026zm-4.773 10.409c-.62 0-1.14-.146-1.56-.438-.948-.657-1.422-2.271-1.422-4.842 0-1.386.247-2.479.739-3.282s1.263-1.204 2.312-1.204c1.048 0 1.796.42 2.243 1.259s.67 2.069.67 3.692c-.001 3.21-.995 4.815-2.982 4.815zm21.319-7.414c0-1.586-.379-2.776-1.135-3.569-.758-.793-1.828-1.19-3.215-1.19a5.59 5.59 0 0 0-2.543.589 4.982 4.982 0 0 0-1.888 1.6v-1.777h-4.622v2.188l1.148.082c.455.019.684.302.684.849v7.576c0 .328-.064.552-.191.671-.128.118-.328.195-.602.232l-.902.082v2.078h6.51v-2.188l-1.56-.082v-6.62c0-.747.255-1.395.767-1.941.51-.548 1.198-.821 2.064-.821s1.454.242 1.765.726c.31.483.465 1.227.465 2.229v5.635c0 .328-.063.552-.191.671-.128.118-.328.195-.603.232l-.902.082v2.078h6.51v-2.188l-1.559-.082v-7.142zm5.996-6.154c.62 0 1.126-.187 1.519-.561.392-.374.588-.853.588-1.437 0-.583-.196-1.07-.588-1.463-.393-.393-.898-.588-1.519-.588-.619 0-1.121.195-1.504.588s-.574.88-.574 1.463c0 .584.191 1.063.574 1.437s.885.561 1.504.561zm1.943 1.806h-4.896v2.27l.957.055c.255 0 .433.055.533.164.1.11.15.319.15.63v7.604c0 .529-.265.821-.793.876l-.902.082v2.078h6.51v-2.188l-1.56-.082V44.884zm15.362 11.324c-.1-.109-.15-.311-.15-.603V45.431c-1.695-.639-3.318-.958-4.869-.958-2.406 0-4.212.693-5.416 2.079-1.203 1.386-1.805 3.319-1.805 5.799 0 2.062.447 3.684 1.34 4.869.894 1.186 2.271 1.778 4.131 1.778 1.586 0 2.836-.657 3.747-1.97l.083.027v1.586h4.349v-2.188l-.876-.055c-.256-.017-.435-.081-.534-.19zm-3.323-1.915c0 .62-.255 1.172-.766 1.654-.511.483-1.167.726-1.97.726-1.896 0-2.845-1.478-2.845-4.432 0-1.623.274-2.927.821-3.911.547-.985 1.431-1.478 2.652-1.478.894 0 1.596.119 2.106.355v7.086zm11.087-15.153h-4.896v2.27l.957.055c.456.037.685.256.685.657v13.484c0 .529-.265.821-.794.876l-.902.082v2.078h6.51v-2.188l-1.559-.082V39.14zm13.104 12.882c-.237-.273-.588-.528-1.054-.766-.465-.237-.852-.405-1.162-.506s-.784-.237-1.422-.41a8.307 8.307 0 0 1-1.642-.616c-.292-.164-.506-.359-.643-.588-.137-.228-.205-.547-.205-.957s.187-.757.561-1.04c.374-.282.87-.424 1.491-.424.619 0 1.148.082 1.586.246.42.164.629.475.629.931v1.148l2.462-.191v-3.282c-1.495-.729-3.005-1.095-4.526-1.095-1.523 0-2.786.384-3.789 1.149s-1.504 1.855-1.504 3.269.465 2.421 1.395 3.022c.475.292.907.516 1.3.67.392.155.757.278 1.094.369.337.092.685.183 1.04.274.355.091.66.182.916.273.255.091.515.265.779.52.264.256.396.584.396.984 0 1.112-.766 1.669-2.297 1.669-1.532 0-2.299-.401-2.299-1.204v-1.313l-2.461.191v3.802c1.131.565 2.808.849 5.033.849 1.531 0 2.794-.388 3.788-1.163.993-.774 1.491-1.846 1.491-3.214.001-1.056-.319-1.922-.957-2.597z"/><path fill="#3A7AE3" d="m268.574 42.777 1.56.082v12.582c0 .328-.063.552-.191.671-.128.118-.328.195-.602.232l-.903.082v2.215h6.62v-2.324l-1.56-.082v-12.61c0-.528.264-.82.793-.875l.903-.082v-2.216h-6.62v2.325zm21.475 6.455c0-1.586-.379-2.776-1.135-3.569-.757-.793-1.828-1.19-3.214-1.19-.912 0-1.761.196-2.544.589a4.979 4.979 0 0 0-1.887 1.6v-1.777h-4.623v2.188l1.148.082c.455.019.684.302.684.849v7.576c0 .328-.064.552-.191.671-.127.118-.328.195-.602.232l-.902.082v2.078h6.51v-2.188l-1.559-.082v-6.62c0-.747.255-1.395.766-1.941.51-.548 1.199-.821 2.064-.821.866 0 1.455.242 1.765.726s.466 1.227.466 2.229v5.635c0 .328-.064.552-.192.671-.128.118-.328.195-.602.232l-.903.082v2.078h6.511v-2.188l-1.56-.082v-7.142zm15.297 6.538V39.14h-5.088v2.16l1.177.082c.474.037.711.256.711.657v2.763a7.546 7.546 0 0 0-2.243-.329c-2.098 0-3.733.712-4.91 2.134-1.176 1.423-1.764 3.319-1.764 5.689 0 1.824.383 3.364 1.148 4.623.839 1.386 2.298 2.079 4.377 2.079 1.659 0 2.899-.666 3.72-1.997l.082.027v1.613h4.432v-2.188l-.958-.055c-.438.001-.667-.209-.684-.628zm-3.2-1.395c0 .62-.246 1.145-.738 1.572-.493.429-1.113.644-1.86.644-1.97 0-2.954-1.532-2.954-4.596 0-1.495.278-2.726.834-3.692s1.437-1.45 2.64-1.45c.729 0 1.423.146 2.079.438v7.084zm9.663-11.297c.619 0 1.126-.187 1.518-.561.393-.374.589-.853.589-1.437 0-.583-.196-1.07-.589-1.463-.392-.393-.898-.588-1.518-.588s-1.122.195-1.505.588-.574.88-.574 1.463c0 .584.191 1.063.574 1.437s.884.561 1.505.561zm1.942 1.806h-4.896v2.27l.957.055c.255 0 .433.055.533.164.101.11.15.319.15.63v7.604c0 .529-.265.821-.793.876l-.902.082v2.078h6.51v-2.188l-1.559-.082V44.884zm15.362 11.324c-.101-.109-.15-.311-.15-.603V45.431c-1.696-.639-3.319-.958-4.869-.958-2.407 0-4.213.693-5.416 2.079s-1.806 3.319-1.806 5.799c0 2.062.447 3.684 1.341 4.869s2.271 1.778 4.13 1.778c1.587 0 2.836-.657 3.748-1.97l.082.027v1.586h4.349v-2.188l-.875-.055c-.256-.017-.434-.081-.534-.19zm-3.323-1.915c0 .62-.256 1.172-.767 1.654-.511.483-1.167.726-1.969.726-1.897 0-2.845-1.478-2.845-4.432 0-1.623.273-2.927.82-3.911.547-.985 1.432-1.478 2.653-1.478.893 0 1.596.119 2.106.355v7.086zm8.365.848c-.611 0-1.095.188-1.45.561-.355.374-.533.849-.533 1.423s.173 1.039.52 1.395c.347.356.839.534 1.478.534.638 0 1.13-.188 1.477-.562.347-.373.52-.848.52-1.422s-.183-1.039-.547-1.396c-.367-.356-.854-.533-1.465-.533zm10.568 1.368c-1.104 0-1.947-.429-2.53-1.286-.584-.856-.875-2.061-.875-3.61 0-3.118 1.103-4.678 3.31-4.678.383 0 .752.06 1.107.178.355.119.533.425.533.917v1.313l2.517-.191v-3.556a9.326 9.326 0 0 0-4.499-1.122c-1.614 0-3.064.606-4.35 1.819s-1.929 3.022-1.929 5.43.562 4.226 1.683 5.457c1.121 1.23 2.657 1.847 4.609 1.847 1.95 0 3.573-.529 4.868-1.587l-1.176-2.106c-1.076.782-2.166 1.175-3.268 1.175zm16.866-10.272c-.429-.465-1.021-.875-1.777-1.23-.757-.355-1.683-.534-2.776-.534-1.569 0-3 .493-4.295 1.478-.675.529-1.213 1.29-1.613 2.284-.401.994-.603 2.165-.603 3.515 0 2.407.538 4.226 1.614 5.457 1.075 1.23 2.566 1.847 4.472 1.847s3.47-.647 4.691-1.942 1.833-3.2 1.833-5.717c0-1.204-.15-2.247-.451-3.132s-.666-1.561-1.095-2.026zm-4.773 10.409c-.62 0-1.141-.146-1.56-.438-.948-.657-1.423-2.271-1.423-4.842 0-1.386.247-2.479.739-3.282s1.263-1.204 2.312-1.204c1.048 0 1.796.42 2.242 1.259.447.839.671 2.069.671 3.692.001 3.21-.993 4.815-2.981 4.815zm28.595-.274v-7.14c0-1.586-.355-2.776-1.066-3.569s-1.724-1.19-3.036-1.19c-1.751 0-3.137.73-4.157 2.188-.62-1.458-1.819-2.188-3.598-2.188-1.777 0-3.178.73-4.198 2.188v-1.777h-4.623v2.215l1.149.082c.255.019.433.087.533.205.1.119.15.333.15.644v7.549h-.027c0 .328-.064.552-.191.671-.128.118-.328.195-.602.232l-.903.082v2.078h6.455v-2.188l-1.477-.082v-6.62c0-.783.219-1.44.656-1.969.438-.529 1.081-.794 1.929-.794s1.386.242 1.613.726c.229.483.343 1.227.343 2.229v5.635c0 .328-.064.552-.191.671-.128.118-.329.195-.603.232l-.902.082v2.078h6.455v-2.188l-1.504-.082v-6.565c0-.856.223-1.54.67-2.051.446-.511 1.09-.767 1.929-.767.838 0 1.371.242 1.6.726.228.483.342 1.227.342 2.229v5.662c-.018.311-.086.524-.205.644-.118.118-.314.195-.588.232l-.902.082v2.078h6.51v-2.188l-1.561-.082zM97 67h289v2H97z"/><path fill="#1E853A" d="M151.382 78.821c-.505-.267-1.285-.524-2.34-.773s-1.719-.488-1.992-.718c-.215-.181-.322-.397-.322-.651 0-.278.114-.501.344-.667.356-.259.85-.388 1.479-.388.61 0 1.068.121 1.373.362.305.242.504.639.597 1.19l2.168-.096c-.035-.986-.392-1.774-1.073-2.365s-1.695-.887-3.043-.887c-.826 0-1.53.125-2.113.374s-1.03.611-1.34 1.088c-.31.476-.465.987-.465 1.534 0 .85.33 1.569.989 2.16.469.42 1.284.774 2.446 1.063.903.225 1.481.381 1.736.469.371.132.631.287.78.465a.98.98 0 0 1 .224.648c0 .396-.177.741-.531 1.036-.354.296-.88.443-1.578.443-.659 0-1.183-.166-1.571-.498s-.646-.853-.772-1.561l-2.109.205c.141 1.201.576 2.116 1.304 2.743.727.628 1.77.941 3.127.941.932 0 1.711-.131 2.336-.392.625-.262 1.108-.661 1.45-1.198a3.168 3.168 0 0 0 .513-1.729c0-.679-.143-1.248-.429-1.71a3.049 3.049 0 0 0-1.188-1.088zm4.098 5.929h2.058v-7.778h-2.058v7.778zm0-8.833h2.058v-1.904h-2.058v1.904zm14.841 1.227c-.396-.231-.879-.348-1.45-.348-.449 0-.872.103-1.267.308s-.764.515-1.106.93c-.234-.415-.535-.725-.901-.93s-.798-.308-1.296-.308c-.938 0-1.746.412-2.424 1.237v-1.062h-1.897v7.778h2.058V80.97c0-.747.055-1.282.165-1.604s.292-.568.545-.739.54-.257.857-.257c.264 0 .473.054.626.161s.267.271.34.491.11.708.11 1.465v4.263h2.058v-3.735c0-.732.056-1.269.168-1.607.112-.34.295-.598.549-.773s.525-.264.813-.264c.396 0 .688.146.879.439.142.225.212.723.212 1.494v4.446h2.058v-4.974c0-.742-.071-1.279-.212-1.611a2.124 2.124 0 0 0-.885-1.021zm8.021-.348c-.518 0-.989.122-1.414.366s-.762.562-1.011.952v-1.143h-1.919v10.737h2.058V83.79c.386.415.753.708 1.103.879s.738.257 1.168.257c.903 0 1.672-.36 2.307-1.08.635-.721.952-1.73.952-3.029 0-1.265-.315-2.251-.945-2.959s-1.395-1.062-2.299-1.062zm.674 5.922c-.317.383-.715.574-1.194.574-.498 0-.92-.208-1.267-.626-.347-.417-.52-1.063-.52-1.938 0-.762.166-1.336.498-1.725a1.58 1.58 0 0 1 1.252-.582c.483 0 .889.197 1.216.593s.491 1.001.491 1.816c0 .875-.159 1.504-.476 1.888zm4.794 2.032h2.058V74.013h-2.058V84.75zm4.652-8.833h2.058v-1.904h-2.058v1.904zm0 8.833h2.058v-7.778h-2.058v7.778zm5.872-10.616c-.374.202-.63.465-.769.787s-.208.811-.208 1.465v.586h-1.143v1.618h1.143v6.16h2.058v-6.16h1.538v-1.618h-1.538v-.55c0-.396.064-.662.194-.802.129-.139.343-.209.641-.209.303 0 .618.039.945.117l.278-1.436a5.723 5.723 0 0 0-1.721-.264c-.571.001-1.044.103-1.418.306zm7.437 8.36-1.861-5.522h-2.19l2.959 7.8c-.122.435-.298.793-.527 1.073-.229.281-.583.421-1.062.421-.259 0-.549-.031-.872-.095l.183 1.611c.381.083.769.124 1.165.124.391 0 .741-.041 1.051-.124s.571-.199.783-.348c.213-.149.4-.344.564-.583s.336-.586.517-1.04l.491-1.354 2.746-7.485h-2.131l-1.816 5.522zm5.749-6.577h2.059v-1.904h-2.059v1.904zm0 8.833h2.059v-7.778h-2.059v7.778zm11.21-7.083c-.192-.254-.477-.462-.853-.626a3.098 3.098 0 0 0-1.245-.245c-1.03 0-1.885.439-2.563 1.318v-1.143h-1.911v7.778h2.058v-3.523c0-.869.052-1.465.157-1.787s.299-.581.582-.776.604-.293.96-.293c.278 0 .517.068.714.205s.341.329.429.575c.088.247.132.79.132 1.63v3.97h2.059v-4.834c0-.601-.039-1.063-.114-1.385s-.211-.61-.405-.864zm8.395.396c-.625-.845-1.418-1.267-2.381-1.267-.933 0-1.713.344-2.34 1.032s-.941 1.685-.941 2.988c0 1.04.239 1.909.719 2.607.609.884 1.438 1.326 2.482 1.326.938 0 1.714-.42 2.329-1.26v1.135c0 .459-.032.774-.095.945-.094.239-.23.412-.41.52-.27.161-.672.242-1.209.242-.42 0-.729-.073-.923-.22-.142-.103-.232-.291-.271-.564l-2.352-.285a5.087 5.087 0 0 0-.008.249c0 .693.275 1.266.828 1.718.552.451 1.486.677 2.805.677.698 0 1.275-.073 1.732-.22s.821-.349 1.096-.607c.273-.259.485-.615.637-1.069.15-.454.227-1.141.227-2.059v-6.979h-1.926v1.091zm-.615 4.435c-.348.393-.771.589-1.274.589-.469 0-.863-.191-1.183-.574-.32-.384-.48-.988-.48-1.813 0-.786.16-1.37.48-1.754a1.518 1.518 0 0 1 1.219-.575c.508 0 .928.195 1.26.586s.498.989.498 1.795c-.001.77-.174 1.352-.52 1.746zm14.998-1.161-1.948-7.324h-3.245V84.75h2.015v-8.452l2.124 8.452h2.088l2.131-8.452v8.452h2.014V74.013h-3.252l-1.927 7.324zm14.11.856.022-2.402c0-.894-.092-1.507-.275-1.842-.183-.334-.499-.61-.947-.827-.45-.218-1.134-.326-2.051-.326-1.012 0-1.773.181-2.286.542s-.874.918-1.083 1.67l1.867.337c.127-.361.293-.614.498-.758.205-.145.49-.217.857-.217.541 0 .91.085 1.105.253.195.169.293.45.293.846v.205c-.371.156-1.038.325-2 .506-.713.137-1.258.297-1.637.479a2.063 2.063 0 0 0-.883.791c-.21.345-.314.736-.314 1.176 0 .664.23 1.213.691 1.647.462.435 1.093.652 1.894.652.454 0 .882-.086 1.282-.257s.776-.427 1.128-.769c.015.039.038.119.073.241.078.269.144.472.197.608h2.036a4.4 4.4 0 0 1-.37-1.044c-.064-.322-.097-.827-.097-1.511zm-1.999-.768c0 .493-.027.827-.08 1.003a1.296 1.296 0 0 1-.491.682c-.337.244-.691.366-1.063.366-.332 0-.605-.105-.819-.315a1.006 1.006 0 0 1-.323-.747c0-.293.134-.534.403-.725.176-.117.549-.237 1.121-.359.57-.122.988-.227 1.252-.314v.409zm7.265 1.794c-.137 0-.253-.034-.348-.103s-.156-.154-.183-.26c-.027-.104-.041-.475-.041-1.109v-3.135h1.406v-1.641h-1.406v-2.747l-2.065 1.201v1.546h-.944v1.641h.944v3.391c0 .728.022 1.211.065 1.45.055.337.15.604.29.803.14.197.357.358.655.483.298.124.633.187 1.004.187.605 0 1.146-.103 1.625-.308l-.176-1.597c-.36.132-.636.198-.826.198zm7.183-.304c-.249.223-.569.333-.959.333-.522 0-.938-.19-1.249-.571s-.465-1.032-.465-1.955c0-.83.152-1.422.457-1.776.306-.354.715-.531 1.228-.531.386 0 .699.103.94.308.242.205.396.511.466.916l2.028-.366c-.244-.835-.646-1.456-1.205-1.864-.559-.407-1.313-.611-2.259-.611-1.157 0-2.075.357-2.754 1.073-.679.715-1.019 1.715-1.019 2.999 0 1.27.338 2.263 1.015 2.98s1.583 1.077 2.721 1.077c1.001 0 1.8-.237 2.396-.711s.998-1.174 1.208-2.102l-2.021-.345c-.103.542-.279.924-.528 1.146zm11.064-5.182c-.193-.273-.48-.498-.861-.674s-.809-.264-1.281-.264c-.924 0-1.717.388-2.381 1.164v-3.947h-2.059V84.75h2.059v-3.896c0-.654.063-1.148.188-1.483.124-.334.32-.585.589-.751s.573-.249.915-.249c.299 0 .547.065.744.194.197.13.336.304.414.523s.117.737.117 1.553v4.109h2.058v-4.563c0-.698-.035-1.213-.106-1.545a2.486 2.486 0 0 0-.396-.909zm13.366-.589c-.396-.231-.879-.348-1.45-.348-.449 0-.871.103-1.268.308-.395.205-.764.515-1.105.93-.234-.415-.535-.725-.9-.93-.367-.205-.799-.308-1.297-.308-.938 0-1.746.412-2.424 1.237v-1.062h-1.897v7.778h2.058V80.97c0-.747.055-1.282.165-1.604s.292-.568.546-.739.539-.257.857-.257c.264 0 .472.054.625.161a.938.938 0 0 1 .342.491c.072.22.109.708.109 1.465v4.263h2.059v-3.735c0-.732.056-1.269.168-1.607.112-.34.295-.598.549-.773s.525-.264.813-.264c.396 0 .688.146.879.439.142.225.212.723.212 1.494v4.446h2.059v-4.974c0-.742-.07-1.279-.213-1.611a2.133 2.133 0 0 0-.887-1.021zm10.028 5.049.021-2.402c0-.894-.091-1.507-.274-1.842-.183-.334-.499-.61-.948-.827-.449-.218-1.133-.326-2.051-.326-1.011 0-1.772.181-2.285.542s-.874.918-1.084 1.67l1.867.337c.127-.361.293-.614.498-.758.205-.145.491-.217.857-.217.542 0 .91.085 1.105.253.195.169.293.45.293.846v.205c-.371.156-1.037.325-1.999.506-.713.137-1.259.297-1.638.479a2.066 2.066 0 0 0-.882.791c-.21.345-.315.736-.315 1.176 0 .664.23 1.213.692 1.647s1.093.652 1.894.652c.454 0 .881-.086 1.281-.257s.776-.427 1.128-.769c.015.039.039.119.073.241.078.269.145.472.198.608h2.036a4.4 4.4 0 0 1-.37-1.044c-.063-.322-.097-.827-.097-1.511zm-2-.768c0 .493-.026.827-.08 1.003a1.291 1.291 0 0 1-.491.682c-.337.244-.69.366-1.062.366-.332 0-.605-.105-.82-.315s-.322-.459-.322-.747c0-.293.135-.534.402-.725.176-.117.55-.237 1.121-.359s.988-.227 1.252-.314v.409zm11.462-4.453h-2.534l-2.409 2.739v-5.698h-2.059V84.75h2.059v-2.49l.959-1.004 1.956 3.494h2.219l-2.849-4.937 2.658-2.841zm1.897-1.055h2.058v-1.904h-2.058v1.904zm0 8.833h2.058v-7.778h-2.058v7.778zm11.211-7.083c-.192-.254-.477-.462-.853-.626a3.098 3.098 0 0 0-1.245-.245c-1.03 0-1.885.439-2.563 1.318v-1.143h-1.912v7.778h2.059v-3.523c0-.869.052-1.465.157-1.787.104-.322.299-.581.582-.776s.604-.293.96-.293c.278 0 .516.068.714.205.197.137.341.329.429.575.088.247.132.79.132 1.63v3.97h2.058v-4.834c0-.601-.038-1.063-.113-1.385a2.307 2.307 0 0 0-.405-.864zm8.393-.695v1.091c-.625-.845-1.418-1.267-2.38-1.267-.933 0-1.713.344-2.34 1.032-.628.688-.941 1.685-.941 2.988 0 1.04.239 1.909.718 2.607.61.884 1.438 1.326 2.482 1.326.938 0 1.714-.42 2.329-1.26v1.135c0 .459-.031.774-.095.945-.093.239-.229.412-.41.52-.269.161-.672.242-1.209.242-.42 0-.728-.073-.923-.22-.142-.103-.231-.291-.271-.564l-2.352-.285a4.938 4.938 0 0 0-.007.249c0 .693.275 1.266.827 1.718.552.451 1.487.677 2.806.677.698 0 1.275-.073 1.732-.22.456-.146.821-.349 1.095-.607s.485-.615.637-1.069.228-1.141.228-2.059v-6.979h-1.926zm-.615 5.526c-.347.393-.771.589-1.274.589-.468 0-.862-.191-1.183-.574-.319-.384-.479-.988-.479-1.813 0-.786.16-1.37.479-1.754.32-.383.727-.575 1.22-.575.508 0 .928.195 1.26.586s.498.989.498 1.795c0 .77-.174 1.352-.521 1.746z"/></g></switch></svg>