<svg xmlns="http://www.w3.org/2000/svg" xml:space="preserve" viewBox="11.23 23.48 375.49 73.07"><switch><g fill-rule="evenodd" clip-rule="evenodd"><path fill="#E55454" d="M263.255 69.6h3.794V40.766h-3.794V69.6zm18.354-18.498c.068 1.313.219 3.438.451 6.378.164 2.092.246 3.917.246 5.476l-6.891-22.189h-3.63V69.6h3.794c0-2.215-.014-4.648-.041-7.301s-.096-5.216-.205-7.69-.273-4.874-.492-7.198l.082-.082L281.65 69.6h3.568V40.766h-3.876c.001 3.595.09 7.041.267 10.336zm13.618-10.336h-5.353V69.6l2.994-.062c2.092-.055 3.343-.103 3.753-.144 1.832-.219 3.274-.854 4.327-1.907 1.244-1.23 2.051-3.104 2.42-5.619.287-1.846.431-3.842.431-5.988 0-2.707-.219-5.312-.656-7.813-.944-4.868-3.582-7.301-7.916-7.301zm4.491 18.129a34.025 34.025 0 0 1-.205 2.563c-.492 3.24-2.44 4.86-5.845 4.86l-.103-22.354c1.395 0 2.56.317 3.497.953.936.636 1.596 1.569 1.979 2.8.232.807.413 1.935.544 3.384.13 1.449.194 3.056.194 4.819 0 1.067-.02 2.059-.061 2.975zm8.039 10.705h3.794V40.766h-3.794V69.6zm15.668-28.834h-3.035L314.094 69.6h3.753l1.128-5.599h5.66l1.148 5.599h3.855l-6.213-28.834zm-3.938 20.22 2.379-14.663 2.256 14.663h-4.635z"/><path fill="#999" d="M336.97 65.354c-.67 0-1.228.215-1.672.646s-.666.954-.666 1.569c0 .684.226 1.244.677 1.682s1.012.656 1.682.656c.629 0 1.151-.229 1.568-.688s.626-1.008.626-1.65c0-.588-.223-1.104-.667-1.549-.445-.443-.96-.666-1.548-.666zm7.034-13.74c-.82.93-1.381 2.194-1.682 3.794-.246 1.354-.369 2.823-.369 4.409 0 1.367.099 2.684.297 3.947.198 1.265.496 2.376.893 3.333.766 1.873 2.27 2.81 4.512 2.81.533 0 1.032-.055 1.497-.164s.937-.294 1.415-.554v-3.404a4.806 4.806 0 0 1-.656.472 2.551 2.551 0 0 1-1.313.349c-1.121 0-1.928-.643-2.42-1.928-.41-1.066-.615-2.618-.615-4.655 0-2.27.205-3.91.615-4.922.465-1.148 1.271-1.723 2.42-1.723.916 0 1.538.308 1.866.923h.103V50.63c-.82-.424-1.736-.636-2.748-.636-1.573 0-2.844.54-3.815 1.62zm19.061.4a5.389 5.389 0 0 0-1.999-1.559 5.924 5.924 0 0 0-2.481-.543c-.807 0-1.583.167-2.328.502a4.762 4.762 0 0 0-1.855 1.467c-.588.752-1.053 2.003-1.395 3.753s-.513 3.582-.513 5.496c0 1.654.246 3.209.738 4.665s1.169 2.499 2.03 3.128c.479.342.994.595 1.548.759s1.139.246 1.754.246c.807 0 1.568-.154 2.286-.462s1.316-.769 1.795-1.384a8.465 8.465 0 0 0 1.682-3.507c.246-1.066.369-2.475.369-4.225 0-1.777-.137-3.442-.41-4.994-.273-1.55-.681-2.666-1.221-3.342zm-2.122 11.208c-.246 2.256-.916 3.384-2.01 3.384-.875 0-1.531-.362-1.969-1.087-.342-.574-.567-1.436-.677-2.584-.055-.588-.082-1.572-.082-2.953 0-1.436.048-2.557.144-3.363.273-2.256 1.032-3.384 2.276-3.384.752 0 1.326.376 1.723 1.128.314.602.526 1.463.636 2.584.055.588.082 1.565.082 2.933 0 1.475-.041 2.59-.123 3.342zm24.815-12.12c-.643-.779-1.6-1.169-2.871-1.169-1.107 0-2.007.205-2.697.615s-1.254 1.107-1.691 2.092h-.103c-.191-.82-.595-1.477-1.21-1.969s-1.354-.738-2.215-.738c-1.75 0-3.015.902-3.794 2.707h-.082v-2.4h-3.671V69.6h3.609V57.397c0-1.641.171-2.762.513-3.363s.937-.902 1.784-.902c.766 0 1.278.253 1.538.759s.39 1.381.39 2.625V69.6h3.609V56.27c0-1.107.178-1.907.533-2.399s.95-.738 1.784-.738c.67 0 1.158.212 1.466.636s.462 1.176.462 2.256V69.6h3.609V54.465c.001-1.463-.321-2.584-.963-3.363z"/><path d="M96.127 42.099c-1.262-1.064-3.692-1.608-7.292-1.633H77.109v28.24h3.433v-10.78h8.795c1.36.012 2.48-.05 3.358-.186 1.385-.161 2.616-.768 3.692-1.818.903-.879 1.453-2.134 1.651-3.767.111-.953.167-1.955.167-3.006 0-1.559-.093-2.82-.278-3.785-.272-1.385-.872-2.474-1.8-3.265zm-1.521 9.685c-.161 1.447-.786 2.344-1.874 2.69-.804.26-1.942.383-3.414.371h-8.776v-11.3h8.776c2.152.037 3.581.334 4.286.891.754.605 1.144 1.979 1.169 4.119 0 1.175-.056 2.252-.167 3.229zm6.494 16.922h3.21v-28.24h-3.21v28.24zm22.266-18.128c-.99-1.237-2.647-1.911-4.973-2.022l-1.874-.037c-2.363-.013-4.089.148-5.177.482-1.695.52-2.642 1.83-2.839 3.934-.05.47-.081 1.014-.093 1.633h3.21c.173-1.695.631-2.675 1.373-2.941s1.88-.405 3.414-.417c.939 0 1.83.08 2.672.241 1.002.186 1.657.761 1.967 1.726.186.557.29 1.478.315 2.765v2.245l-.835-.687c-1.126-.742-2.981-1.113-5.566-1.113-1.547.012-2.92.191-4.119.538-2.152.618-3.229 2.492-3.229 5.622.012 2.932.761 4.793 2.245 5.585 1.101.594 3.166.878 6.197.854.742.012 1.397-.019 1.967-.093.952-.1 1.843-.477 2.672-1.132l.854-.742v1.688h3.024v-12.84c-.013-1.237-.056-2.159-.13-2.765a5.105 5.105 0 0 0-1.075-2.524zm-2.802 14.658c-.582.717-2.041 1.069-4.379 1.058-1.695.012-2.957-.118-3.785-.39-1.064-.347-1.59-1.386-1.577-3.117a6.832 6.832 0 0 1 .167-1.726c.26-1.299 1.824-1.961 4.694-1.985 2.561.012 4.218.383 4.973 1.113.557.568.841 1.379.854 2.431-.001 1.064-.316 1.936-.947 2.616zm21.319-2.931a13.204 13.204 0 0 1-.185 1.651c-.211 1.113-.872 1.793-1.985 2.041-.99.21-1.986.309-2.988.297-1.682.012-2.953-.183-3.813-.585-.86-.401-1.364-1.5-1.513-3.293-.148-1.559-.216-2.938-.204-4.138-.013-1.608.099-2.994.333-4.156.334-1.683 1.218-2.598 2.653-2.746a28.324 28.324 0 0 1 3.118-.167c1.397.024 2.362.186 2.894.482.631.371 1.052 1.225 1.262 2.561l.186 1.188h3.21c-.075-2.92-.761-4.837-2.06-5.752-1.064-.755-3.118-1.145-6.161-1.169-2.115 0-3.829.253-5.139.761-1.559.581-2.592 1.874-3.099 3.878-.285 1.15-.421 2.857-.409 5.121.012 4.119.439 6.858 1.281 8.22 1.026 1.657 3.574 2.486 7.645 2.486 1.744.012 3.253-.167 4.527-.538 1.831-.508 2.975-1.751 3.433-3.729.185-.805.278-1.757.278-2.857v-.557h-3.209l-.055 1.001zm19.742 1.039c-.025.828-.142 1.416-.352 1.763-.26.433-.768.739-1.522.918-.754.18-1.942.27-3.563.27-1.534.012-2.672-.148-3.414-.482-.854-.371-1.38-1.336-1.578-2.895a15.79 15.79 0 0 1-.186-2.635v-.761h13.768v-1.28l-.037-2.171a20.392 20.392 0 0 0-.278-2.672c-.383-2.128-1.311-3.52-2.783-4.175-1.101-.482-2.82-.718-5.158-.705-1.076 0-2.103.056-3.08.167-2.944.346-4.657 1.781-5.14 4.305-.346 1.694-.513 3.797-.501 6.309.012 3.476.464 5.875 1.354 7.199 1.125 1.657 3.34 2.486 6.643 2.486 1.559 0 2.987-.081 4.286-.241 3.129-.347 4.713-2.202 4.75-5.566v-.631h-3.21v.797zm-10.613-7.274c.025-2.264.482-3.668 1.374-4.212.643-.396 2.164-.612 4.564-.649 1.769-.013 2.956.303 3.562.946.68.729 1.033 1.917 1.058 3.563v1.113h-10.558v-.761zm43.009-7.255a11.09 11.09 0 0 0-2.653-.297c-1.707.024-3.142.247-4.305.668-1.41.531-2.424 1.496-3.043 2.895l-.353-.835c-.854-1.818-2.635-2.728-5.344-2.728-.866 0-1.738.08-2.616.241-1.113.21-2.004.525-2.672.946-.582.371-1.181 1.076-1.8 2.115v-3.024h-2.95v19.909h3.21V56.924c0-1.992.52-3.451 1.559-4.379a4.097 4.097 0 0 1 1.67-.946 8.183 8.183 0 0 1 2.672-.39c2.697-.025 4.07 1.088 4.119 3.34l.037 2.319v11.838h3.21V56.942c-.012-1.237.093-2.208.315-2.913.148-.52.482-1.027 1.002-1.521.903-.866 2.35-1.299 4.342-1.299 2.635-.013 4.057.971 4.268 2.95.074.804.118 1.719.13 2.746v11.801h3.21V56.942c0-1.262-.049-2.394-.148-3.396-.272-2.585-1.559-4.162-3.86-4.731zm21.097 14.529c-.024.828-.142 1.416-.353 1.763-.26.433-.768.739-1.521.918-.754.18-1.941.27-3.563.27-1.533.012-2.672-.148-3.414-.482-.854-.371-1.379-1.336-1.577-2.895a15.79 15.79 0 0 1-.186-2.635v-.761h13.768v-1.28l-.037-2.171a20.392 20.392 0 0 0-.278-2.672c-.383-2.128-1.311-3.52-2.783-4.175-1.102-.482-2.82-.718-5.158-.705-1.076 0-2.104.056-3.08.167-2.943.346-4.657 1.781-5.14 4.305-.347 1.694-.513 3.797-.501 6.309.012 3.476.464 5.875 1.354 7.199 1.126 1.657 3.34 2.486 6.643 2.486 1.559 0 2.987-.081 4.286-.241 3.129-.347 4.713-2.202 4.75-5.566v-.631h-3.21v.797zm-10.613-7.274c.024-2.264.482-3.668 1.373-4.212.644-.396 2.165-.612 4.564-.649 1.769-.013 2.956.303 3.563.946.681.729 1.032 1.917 1.058 3.563v1.113h-10.558v-.761zm32.656-5.677c-.705-.854-1.534-1.392-2.486-1.614-.705-.148-1.707-.235-3.006-.26-.94 0-1.818.074-2.635.223-1.299.234-2.351.798-3.154 1.688l-.779 1.002v-2.635h-2.932v19.909h3.21V57.109c0-1.113.154-2.152.464-3.117.594-1.868 2.288-2.796 5.084-2.783 1.979 0 3.266.464 3.859 1.392.433.68.649 2.065.649 4.156v11.949h3.21v-12.58c.037-.681-.067-1.677-.315-2.987-.197-1.126-.588-2.041-1.169-2.746zm14.9 11.225-.074 2.041c-.1 1.793-.811 2.672-2.134 2.635-1.262-.025-2.057-.232-2.384-.622-.328-.39-.486-1.172-.474-2.347V51.487h7.589v-2.69h-7.589V44.14h-3.21v4.657h-2.783v2.69h2.783v12.339c.049 2.956 1.095 4.607 3.136 4.954.718.148 1.528.216 2.431.204a12.6 12.6 0 0 0 2.672-.241c1.51-.26 2.492-1.2 2.95-2.82a8.002 8.002 0 0 0 .297-2.208v-2.097h-3.21z"/><circle cx="25.342" cy="28.515" r="5.032" fill="#E55454"/><path fill="#666" d="M58.477 60.214c-8.755 20.627-22.407 0-22.407 0 3.562 17.065-6.529 17.065-6.529 17.065l-.232.049V38.803c0-1.195-.97-2.165-2.166-2.165h-3.609c-1.196 0-2.165.97-2.165 2.165v55.58c0 1.196.969 2.166 2.165 2.166h3.609c1.196 0 2.166-.97 2.166-2.166V79.648l.232.005c28.564.386 29.975-20.033 29.975-20.033l-1.039.594zM49.346 67.3c1.582 0 2.865-2.045 2.865-4.567s-1.283-4.567-2.865-4.567c-1.583 0-2.865 2.045-2.865 4.567s1.283 4.567 2.865 4.567z"/><path fill="#0273C2" d="M49.798 42.003c2.585-1.186 4.978-1.928 7.059-2.107 0 0 .774-1.394-.774-1.394-.493 0-3.489.837-7.864 2.791-8.608-3.437-18.926-1.087-18.926-1.087v3.251c6.323-1.505 11.283-1.393 15.183-.372-9.44 4.817-22.722 13.849-32.527 29.016-3.716 10.219 8.208 8.979 9.292 7.896 0 0 1.274-.746.62-1.084 0 0-11.614-1.394-.155-14.244 7.696-8.631 16.856-16.487 24.765-20.955C56.824 47.607 58.407 58.32 58.407 58.32l.31 2.787.929.465c.299-11.065-4.217-16.744-9.848-19.569z"/><path fill="#666" d="M78.393 89.166h1.452V78.192h-1.452v10.974zm9.805-7.193c-.2-.279-.5-.505-.902-.678a3.322 3.322 0 0 0-1.321-.258c-1.103 0-1.946.437-2.53 1.31v-1.13h-1.212v7.949h1.347v-4.342c0-1.018.208-1.709.625-2.073s.912-.546 1.486-.546c.359 0 .672.081.939.243s.453.379.558.651c.105.271.157.682.157 1.231v4.835h1.348v-4.888c0-.624-.025-1.061-.075-1.311a2.613 2.613 0 0 0-.42-.993zm7.628.157a2.654 2.654 0 0 0-2.193-1.093c-.654 0-1.245.172-1.774.517-.529.344-.926.84-1.19 1.485-.265.646-.397 1.366-.397 2.16 0 .813.146 1.533.438 2.159s.704 1.114 1.235 1.464a3.12 3.12 0 0 0 1.748.523c.978 0 1.719-.395 2.223-1.183v1.003h1.25V78.192h-1.34v3.938zm-.506 5.386c-.412.481-.912.723-1.5.723-.584 0-1.091-.252-1.52-.757-.429-.504-.644-1.265-.644-2.282 0-1.053.201-1.824.603-2.313s.902-.733 1.501-.733c.614 0 1.13.255 1.549.764.419.509.629 1.308.629 2.396 0 .985-.206 1.72-.618 2.202zm3.972-7.774h1.347v-1.55h-1.347v1.55zm0 9.424h1.347v-7.949h-1.347v7.949zm9.835-3.331v-1.796c0-.6-.022-1.014-.067-1.243-.08-.369-.219-.675-.419-.917s-.512-.442-.936-.603c-.424-.159-.976-.239-1.654-.239-.684 0-1.285.094-1.804.28-.519.188-.916.454-1.19.802-.274.347-.472.802-.591 1.365l1.317.18c.145-.563.368-.956.67-1.179.302-.222.77-.333 1.403-.333.679 0 1.19.152 1.535.457.254.225.382.611.382 1.16 0 .05-.003.167-.008.352-.514.18-1.315.334-2.403.464a9.79 9.79 0 0 0-1.197.202 3.3 3.3 0 0 0-.97.441 2.2 2.2 0 0 0-.696.775 2.173 2.173 0 0 0-.266 1.066c0 .664.235 1.209.704 1.636.469.427 1.141.64 2.014.64.529 0 1.024-.087 1.486-.262s.942-.475 1.441-.898c.04.374.13.701.27.98h1.407a3.006 3.006 0 0 1-.34-.954c-.059-.331-.088-1.123-.088-2.376zm-1.362-.164c0 .594-.072 1.043-.217 1.347-.19.395-.487.705-.891.933a2.78 2.78 0 0 1-1.385.34c-.524 0-.922-.119-1.194-.359a1.146 1.146 0 0 1-.408-.897 1.153 1.153 0 0 1 .718-1.079c.229-.1.622-.189 1.175-.27.978-.14 1.712-.31 2.201-.509v.494zm3.368-6.026h.704c-.015.414-.089.74-.221.978-.132.236-.333.41-.603.52l.33.531c.454-.204.789-.509 1.003-.913.155-.294.232-.775.232-1.444V78.08h-1.444v1.565zm8.066 5.326c-.377-.162-1.042-.371-1.995-.625a21.723 21.723 0 0 1-1.19-.345c-.235-.095-.407-.214-.517-.359a.744.744 0 0 1-.165-.472c0-.274.132-.514.396-.718.265-.205.706-.308 1.325-.308.524 0 .929.115 1.216.345.287.229.46.549.52.958l1.317-.18c-.085-.514-.239-.925-.464-1.231s-.573-.55-1.044-.729c-.471-.18-1.019-.27-1.643-.27-.414 0-.802.054-1.164.161-.362.107-.647.238-.857.393-.279.2-.5.45-.662.752a2.044 2.044 0 0 0-.244.984c0 .39.099.745.296 1.067.197.321.486.573.868.756.382.182 1.067.397 2.055.647.734.185 1.193.337 1.377.456a.818.818 0 0 1 .396.719c0 .34-.149.636-.449.888-.3.252-.759.378-1.377.378-.614 0-1.092-.143-1.434-.427-.342-.285-.55-.693-.625-1.228l-1.332.209c.149.844.495 1.479 1.037 1.909.542.429 1.329.644 2.361.644.624 0 1.183-.108 1.677-.325.494-.218.872-.524 1.134-.921.262-.396.393-.819.393-1.269 0-.459-.107-.844-.322-1.153a2.004 2.004 0 0 0-.884-.706zm13.402-1.644c.514-.254.898-.588 1.153-1.003a2.49 2.49 0 0 0 .382-1.324c0-.504-.144-.987-.431-1.449a2.598 2.598 0 0 0-1.19-1.025c-.507-.222-1.179-.333-2.018-.333h-4.117v10.974h4.184c.699 0 1.289-.061 1.771-.184.481-.122.882-.303 1.201-.542.319-.24.588-.58.805-1.022.217-.441.326-.919.326-1.434 0-.639-.178-1.192-.535-1.661s-.867-.802-1.531-.997zm-4.768-3.84h2.193c.788 0 1.345.052 1.669.153.324.103.574.292.749.569s.262.598.262.962c0 .384-.094.703-.281.958s-.465.437-.834.547c-.28.084-.741.127-1.385.127h-2.373v-3.316zm5.112 7.422c-.145.268-.329.471-.554.61s-.504.239-.838.299c-.19.035-.519.053-.988.053h-2.732v-3.772h2.538c.698 0 1.234.062 1.605.184s.663.334.872.636.314.658.314 1.066c.001.349-.072.658-.217.924zm6.812-5.872c-1.098 0-1.991.369-2.68 1.107-.688.739-1.033 1.777-1.033 3.114 0 1.292.34 2.297 1.021 3.013s1.603 1.074 2.766 1.074c.923 0 1.682-.225 2.275-.674s1-1.08 1.22-1.894l-1.392-.172c-.205.568-.482.982-.831 1.242-.35.26-.771.39-1.265.39-.664 0-1.218-.232-1.662-.696-.444-.464-.691-1.133-.741-2.006h5.929c.005-.16.007-.28.007-.359 0-1.313-.337-2.331-1.011-3.055-.672-.723-1.54-1.084-2.603-1.084zm-2.245 3.391c.044-.693.278-1.247.7-1.661.421-.415.942-.622 1.561-.622.684 0 1.24.26 1.669.778.279.335.449.836.509 1.505h-4.439zm12.362.543c-.377-.162-1.042-.371-1.995-.625a21.723 21.723 0 0 1-1.19-.345c-.234-.095-.407-.214-.517-.359a.744.744 0 0 1-.165-.472c0-.274.132-.514.397-.718.264-.205.706-.308 1.325-.308.524 0 .929.115 1.216.345s.46.549.52.958l1.318-.18c-.085-.514-.24-.925-.464-1.231s-.573-.55-1.044-.729c-.472-.18-1.02-.27-1.643-.27-.415 0-.802.054-1.164.161s-.647.238-.857.393c-.279.2-.5.45-.662.752a2.055 2.055 0 0 0-.243.984c0 .39.098.745.295 1.067.197.321.487.573.868.756.382.182 1.067.397 2.055.647.734.185 1.193.337 1.377.456a.819.819 0 0 1 .397.719c0 .34-.15.636-.449.888s-.759.378-1.377.378c-.614 0-1.092-.143-1.434-.427-.342-.285-.55-.693-.625-1.228l-1.332.209c.149.844.495 1.479 1.037 1.909.542.429 1.329.644 2.361.644.624 0 1.183-.108 1.677-.325.494-.218.872-.524 1.134-.921.262-.396.393-.819.393-1.269 0-.459-.107-.844-.322-1.153a2.03 2.03 0 0 0-.887-.706zm5.161 3.043c-.2 0-.353-.032-.46-.098a.555.555 0 0 1-.232-.262c-.047-.11-.071-.357-.071-.741v-4.648h1.355v-1.048h-1.355V78.44l-1.34.809v1.969h-.988v1.048h.988v4.573c0 .809.055 1.339.165 1.591.11.252.3.455.569.61.269.154.648.231 1.138.231.299 0 .639-.04 1.018-.119l-.195-1.19a4.555 4.555 0 0 1-.592.052zm10.18-2.261c0 .629-.05 1.087-.15 1.373-.1.287-.282.515-.546.682s-.579.251-.943.251c-.494 0-.881-.155-1.16-.465-.279-.309-.437-.883-.472-1.721l-1.31.179c-.02 1.094.226 1.917.737 2.471s1.249.831 2.212.831c.648 0 1.214-.133 1.695-.397a2.376 2.376 0 0 0 1.056-1.152c.222-.504.333-1.215.333-2.133v-7.479h-1.452v7.56zm6.879-4.716c-.983 0-1.816.294-2.5.883-.819.709-1.228 1.8-1.228 3.271 0 1.343.343 2.37 1.029 3.084s1.586 1.07 2.699 1.07c.693 0 1.333-.162 1.92-.486s1.033-.78 1.34-1.366c.307-.586.46-1.391.46-2.414 0-1.263-.347-2.252-1.041-2.968-.693-.715-1.586-1.074-2.679-1.074zm1.669 6.438c-.444.509-1 .764-1.669.764a2.139 2.139 0 0 1-1.677-.76c-.444-.507-.666-1.27-.666-2.287s.222-1.779.666-2.283 1.003-.756 1.677-.756c.664 0 1.219.253 1.666.76.446.507.67 1.251.67 2.234-.001 1.042-.223 1.819-.667 2.328zm9.615-5.311c-.282-.357-.642-.634-1.078-.831s-.899-.296-1.388-.296c-.883 0-1.609.356-2.178 1.07v-3.915h-1.348v10.974h1.25v-.995c.534.783 1.27 1.175 2.208 1.175.943 0 1.751-.372 2.425-1.115.673-.743 1.01-1.797 1.01-3.159 0-.573-.08-1.112-.24-1.616a3.996 3.996 0 0 0-.661-1.292zm-1.119 5.307c-.429.512-.938.768-1.527.768-.724 0-1.298-.347-1.722-1.041-.26-.424-.389-1.112-.389-2.065 0-.969.214-1.708.644-2.22s.938-.768 1.527-.768c.584 0 1.082.247 1.494.741.412.494.617 1.261.617 2.298-.001 1.013-.215 1.775-.644 2.287zm15.255-8.66c-.364-.252-.815-.423-1.354-.513-.384-.07-.941-.105-1.669-.105h-4.139v10.974h1.452v-4.461h2.814c1.552 0 2.625-.323 3.219-.97.594-.646.891-1.436.891-2.369 0-.544-.111-1.043-.333-1.497-.224-.455-.517-.807-.881-1.059zm-.876 4.075c-.395.35-1.061.524-1.999.524h-2.837v-3.923h2.807c.659 0 1.11.033 1.355.098.379.104.685.32.917.647s.348.72.348 1.179c0 .634-.197 1.126-.591 1.475zm6.991-1.849c-.982 0-1.816.294-2.5.883-.818.709-1.227 1.8-1.227 3.271 0 1.343.343 2.37 1.029 3.084.686.714 1.585 1.07 2.698 1.07.693 0 1.334-.162 1.92-.486a3.256 3.256 0 0 0 1.34-1.366c.308-.586.461-1.391.461-2.414 0-1.263-.347-2.252-1.041-2.968-.694-.715-1.586-1.074-2.68-1.074zm1.67 6.438a2.125 2.125 0 0 1-1.67.764 2.135 2.135 0 0 1-1.676-.76c-.445-.507-.666-1.27-.666-2.287s.221-1.779.666-2.283a2.136 2.136 0 0 1 1.676-.756c.664 0 1.219.253 1.666.76.446.507.67 1.251.67 2.234 0 1.042-.223 1.819-.666 2.328zm5.685-6.168c-.263.18-.549.552-.857 1.115v-1.205h-1.213v7.949h1.348v-4.162a5.2 5.2 0 0 1 .225-1.571c.1-.314.267-.561.501-.737a1.28 1.28 0 0 1 .794-.266c.329 0 .658.097.988.292l.463-1.251c-.469-.289-.93-.434-1.385-.434-.314 0-.602.09-.864.27zm5.401 6.707c-.2 0-.354-.032-.461-.098a.555.555 0 0 1-.232-.262c-.047-.11-.07-.357-.07-.741v-4.648h1.354v-1.048h-1.354V78.44l-1.34.809v1.969h-.988v1.048h.988v4.573c0 .809.055 1.339.164 1.591s.3.455.569.61c.27.154.648.231 1.138.231.299 0 .639-.04 1.018-.119l-.194-1.19a4.584 4.584 0 0 1-.592.052zm8.345-2.179v-1.796c0-.6-.022-1.014-.067-1.243-.079-.369-.22-.675-.419-.917s-.512-.442-.936-.603c-.424-.159-.977-.239-1.654-.239-.684 0-1.285.094-1.805.28-.519.188-.915.454-1.189.802-.275.347-.472.802-.592 1.365l1.318.18c.145-.563.367-.956.67-1.179.301-.222.77-.333 1.402-.333.68 0 1.19.152 1.535.457.254.225.381.611.381 1.16 0 .05-.002.167-.007.352-.515.18-1.315.334-2.403.464a9.825 9.825 0 0 0-1.197.202c-.359.1-.682.247-.969.441-.287.195-.52.453-.696.775a2.174 2.174 0 0 0-.267 1.066c0 .664.235 1.209.704 1.636.47.427 1.14.64 2.014.64.528 0 1.024-.087 1.485-.262.462-.175.942-.475 1.441-.898.04.374.13.701.27.98h1.407a3.008 3.008 0 0 1-.341-.954c-.055-.331-.085-1.123-.085-2.376zm-1.362-.164c0 .594-.072 1.043-.217 1.347-.19.395-.487.705-.892.933-.404.227-.865.34-1.385.34-.523 0-.922-.119-1.193-.359a1.15 1.15 0 0 1-.408-.897 1.153 1.153 0 0 1 .719-1.079c.229-.1.621-.189 1.176-.27.978-.14 1.711-.31 2.2-.509v.494zm3.421-7.479v10.974h1.348V78.192h-1.348z"/></g></switch></svg>