<svg xmlns="http://www.w3.org/2000/svg" viewBox="0.7 1.06 286.2 49.81"><path fill="#12235b" d="m80 30.5-.5 4.9-.4-4.9-2.9-16.3h-3.8l-2.7 16.3-.4 4.9-.4-4.9-2.4-16.3h-4.7l4.6 24h5.4l1.9-11.6.6-5.7.7 5.7 2.1 11.6h5.4l4.4-24h-4.6L80 30.5zm20.7-8.6c-.4-.7-1-1.2-1.8-1.6-.4-.2-.9-.3-1.5-.5s-1.2-.2-1.8-.2c-1.8 0-3.3.5-4.5 1.3-1.2.9-1.8 2.5-1.8 4.9v5.4c0 1.7.2 3.1.6 4.1.4 1 1 1.8 1.7 2.2.7.5 1.4.8 2.1.9.7.1 1.5.2 2.4.2.9 0 1.7-.1 2.4-.4.7-.3 1.2-.7 1.7-1.3.9-1.1 1.3-2.7 1.3-4.8h-4.1c0 1.1-.1 2-.4 2.5-.2.5-.6.8-1.2.9-.2 0-.4 0-.5.1-.6 0-1.1-.2-1.5-.7-.3-.5-.5-1.1-.5-2.1V30h8.3v-2.5c0-1.3-.1-2.4-.2-3.3 0-.9-.3-1.6-.7-2.3zm-3.2 5h-4.1v-1.8c0-1.4.7-2.2 2-2.2.9 0 1.4.2 1.7.6.3.4.4.9.4 1.6v1.8zm16.8-7.1c-.2 0-.4-.1-.6-.1h-.6c-1.6 0-2.7.7-3.4 2.2v-7.6h-4.1v23.9h4v-1.9c.5.9 1.1 1.6 1.7 1.9.7.4 1.4.5 2.3.5 1.3 0 2.3-.5 3.1-1.6.7-1 1.1-2.7 1.1-5v-5.7c0-2.2-.3-3.8-.8-4.8-.7-1-1.5-1.6-2.7-1.8zm-.8 12.5c0 1-.2 1.8-.6 2.4-.4.6-.9.9-1.4.9-.5-.1-1-.4-1.3-.9-.4-.6-.5-1.4-.5-2.4v-6.6c0-.9.2-1.5.5-2 .4-.5.8-.7 1.4-.7.8 0 1.3.2 1.5.7.2.5.4 1.2.4 2v6.6zm8.3 5.9h4.2V14.3h-4.2v23.9zm8.9-20.2h4.1v-3.8h-4.1V18zm0 20.2h4.1v-18h-4.1v18zm16.4-18.5c-.9 0-1.6.2-2.4.7-.7.4-1.2 1.1-1.5 1.8v-2h-4.1v18h4.1V26c0-.9.2-1.6.6-2.1.4-.5.9-.7 1.5-.7.3 0 .6.1.8.2.2.1.4.3.5.5.2.4.4 1.1.4 2v12.3h4.1V23.7c0-1.3-.4-2.3-1.2-3-.7-.6-1.7-1-2.8-1zm15.6.5-3.9 7.1h-.1v-13h-4.1v23.9h4.1v-5.5l1.1-1.8 2.6 7.3h4.6l-4.4-10.8 4.6-7.2h-4.5zm6.7 18h4.5v-24h-4.5v24zM186 19.7c-.9 0-1.6.2-2.4.7-.7.4-1.2 1.1-1.5 1.8v-2H178v18h4.1V26c0-.9.2-1.6.6-2.1.4-.5.9-.7 1.5-.7.3 0 .6.1.8.2.2.1.4.3.5.5.2.4.4 1.1.4 2v12.3h4.1V23.7c0-1.3-.4-2.3-1.2-3-.7-.6-1.6-1-2.8-1zm15.8 1.5.1.9c-.4-.8-.9-1.4-1.4-1.8-.6-.4-1.3-.6-2.3-.6l-1.1.1c-2.3.4-3.4 2.5-3.4 6.2v6.2c0 3.6 1 5.7 3 6.4.5.1.9.2 1.3.2.9 0 1.6-.2 2.3-.7s1.2-1.1 1.4-1.9v2h4.1v-24h-4.1v7h.1zm0 11c0 1.2-.2 2-.6 2.5-.4.5-.9.8-1.4.8-.5 0-1-.3-1.3-.9-.4-.6-.5-1.4-.5-2.5V26c0-1 .1-1.8.4-2.3.3-.5.8-.8 1.5-.8.6 0 1.1.3 1.5.9.3.6.5 1.3.5 2.3v6.1h-.1zm8.6 6h4.1v-18h-4.1v18zm0-20.2h4.1v-3.8h-4.1V18zm20.2 6.5c0-1.1-.2-2-.6-2.7-.4-.7-1.1-1.3-2-1.6-.9-.4-2.1-.5-3.5-.5-.7 0-1.3.1-1.9.2-.6.1-1.1.2-1.5.4-.9.4-1.6 1-2 1.8-.5.8-.7 2-.7 3.5h3.9v-.7c0-.2 0-.4.1-.5.1-.3.2-.6.5-.9.1-.2.3-.3.5-.4.3-.1.6-.1 1-.1 1.4 0 2.1.6 2.1 1.7 0 .6-.2 1.1-.6 1.4-.3.3-1.1.7-2.2 1.1-.6.3-1.1.5-1.4.6-.4.2-.7.3-.9.5-1 .6-1.7 1.2-2.3 2.1-.5.8-.8 2-.8 3.4 0 2.5.9 4 2.6 4.6.7.2 1.4.3 2 .3 1.6 0 2.9-.8 3.9-2.5 0 .2 0 .4-.1.6.1.7.2 1.2.3 1.4h4c-.2-.7-.3-1.7-.3-2.8V24.5h-.1zm-4.2 6.2c0 1.7-.1 2.8-.3 3.4-.2.5-.5.9-1 1.2-.1.1-.4.1-.9.2-.7-.1-1.1-.3-1.5-.7-.3-.4-.5-.9-.6-1.6.1-.6.2-1.1.5-1.6s.6-.8.9-1.1c.2-.2.5-.4.7-.6.2-.2.4-.3.5-.4l1.6-1v2.2zm9.7 7.5h4.2v-4.3h-4.2v4.3zm20.4-20.3c.2 3.4.3 6 .4 7.8.1 3.1.2 5.4.2 7.1l-6.7-18.6h-4.7v24h4.4l-.7-18.2 6.8 18.2h4.6v-24h-4.5s0 1.2.2 3.7zm19.6 4c-.4-.7-1-1.2-1.8-1.6-.4-.2-.9-.3-1.5-.5s-1.2-.2-1.8-.2c-1.8 0-3.3.5-4.5 1.3-1.2.9-1.8 2.5-1.8 4.9v5.4c0 1.7.2 3.1.6 4.1.4 1 1 1.8 1.7 2.2.7.5 1.4.8 2.1.9.7.1 1.5.2 2.4.2.9 0 1.7-.1 2.4-.4.7-.3 1.2-.7 1.7-1.3.9-1.1 1.3-2.7 1.3-4.8h-4.1c0 1.1-.1 2-.4 2.5s-.6.8-1.2.9c-.2 0-.4 0-.5.1-.6 0-1.1-.2-1.5-.7-.3-.5-.5-1.1-.5-2.1V30h8.3v-2.5c0-1.3-.1-2.4-.2-3.3 0-.9-.3-1.6-.7-2.3zm-3.2 5h-4.1v-1.8c0-1.4.7-2.2 2-2.2.9 0 1.4.2 1.7.6.3.4.4.9.4 1.6v1.8zm14-2.7v-3l-1.7-1v-5H281v5h-1.6v3h1.6v12.2c0 2.1 1.2 3.1 3.7 3.1h.3c.1 0 .4 0 .9-.1l1 .9V36h-.7c-.2 0-.3-1-.5-1.1-.2 0-.3-.1-.4-.3-.1-.2-.1-.5-.1-.9V23.2l1.7 1z"/><path fill="#F92B2C" d="M26.7 7.1c-3.5 0-6.3 3.8-6.3 8.5s6.4 17.2 6.3 17.2c-.1 0 6.3-12.5 6.3-17.2 0-4.8-2.8-8.5-6.3-8.5z"/><path fill="#296FE1" d="M23.3 27.9 18 35.2 8.4 3.1S1.8-3.6.7 7.4l12.6 42s3.9 4.1 6.8-1.4l6.7-9.5-3.5-10.6z"/><path fill="#296FE1" d="m45.1 3.1-9.6 32.1-5.3-7.3-3.6 10.6 6.7 9.5c3 5.5 6.8 1.4 6.8 1.4L52.8 7.3c-1.1-10.9-7.7-4.2-7.7-4.2z"/></svg>